<?xml version="1.0" encoding="utf-8"?>
<svg id="master-artboard" viewBox="0 0 2800 2220.5" version="1.1" xmlns="http://www.w3.org/2000/svg" x="0px" y="0px" width="2800px" height="2220.5px" enable-background="new 0 0 2800 2220.5">


<path fill="#0C0C22" d="M426.954,998.192c-0.066-3.424-0.198-6.854-0.4-10.291c-0.23-3.929-0.58-7.856-1.008-11.778&#10;&#9;&#9;c-1.021-9.309-2.64-18.554-4.958-27.607c-1.556-6.064-3.468-12.018-5.708-17.854c-1.71-4.461-3.556-8.871-5.708-13.149&#10;&#9;&#9;c-5.733-11.406-14.638-23.065-25.528-31.617c-0.18-0.388-0.441-0.744-0.873-0.993c-0.621-0.356-1.241-0.68-1.862-1.023&#10;&#9;&#9;c-9.192-6.574-19.631-10.903-30.732-11.041c-6.772-0.993-13.64-0.958-20.643,0.258c-13.252-39.528-21.316-81.374-40.57-118.365&#10;&#9;&#9;c12.449,0.482,25.302-1.339,38.214-3.336c20.176-0.854,40.457-2.265,60.665-2.432c0.309,0,0.617-0.006,0.92-0.044&#10;&#9;&#9;c14.459-0.242,15.77-23.969-1.48-24.99c-22.514-1.333-45.094,0.542-67.661,2.593c-2.318-1.163-4.586-2.322-6.813-3.585&#10;&#9;&#9;c-0.413-3.953-0.835-7.929-1.263-11.923c15.939-9.614,26.247-28.795,34.317-44.672c9.986-19.644,17.827-40.854,21.972-62.52&#10;&#9;&#9;c11.753-61.411-29.501-112.405-28.496-172.43c0.073-4.152-5.194-7.488-8.489-4.086c-29.69,30.685-41.824,71.586-48.653,112.761&#10;&#9;&#9;c-1.515,9.141-2.574,18.352-3.264,27.595c-5.541-12.062-12.055-23.648-19.805-34.554c-38.532-54.222-104.489-62.567-164.025-78.995&#10;&#9;&#9;c-5.207-1.437-8.534,4.035-5.664,8.272c21.875,32.298,40.069,66.754,59.991,100.239c15.256,25.648,33.202,49.186,50.48,73.441&#10;&#9;&#9;c15.934,22.366,32.273,44.756,52.276,63.705c11.737,11.12,27.75,23.799,44.782,23.159c1.868,1.812,3.821,3.531,5.84,5.104&#10;&#9;&#9;c-19.496,1.685-38.966,2.936-58.352,1.814c-6.527-1.364-13.054-2.719-19.609-3.821c-0.362-0.299-0.753-0.57-1.188-0.797&#10;&#9;&#9;c-3.32-1.739-6.678-2.312-10.033-2.164c-0.684-1.55-1.89-2.908-3.279-3.446c-1.229-0.476-2.372-0.91-3.692-1.024&#10;&#9;&#9;c-3.49-0.302-6.114,0.835-7.922,3.922c-2.051,3.503-3.078,6.19-3.427,10.222c-0.252,2.917,0.878,5.803,2.857,7.633&#10;&#9;&#9;c1.125,2.154,3.383,3.764,7.179,4.17c18.929,2.016,37.789,5.434,56.711,7.803c-22.085,17.284-42.287,37.215-60.318,58.563&#10;&#9;&#9;c-13.564,16.056-28.089,35.193-34.947,55.933c-24.829-6.092-52.137,0.003-63.141,22.822&#10;&#9;&#9;c-34.487,27.447-45.245,78.365-37.058,121.534c5.743,30.275,28.738,48.178,54.415,51.218c1.563,0.186,3.138,0.299,4.719,0.375&#10;&#9;&#9;c3.894,0.183,7.822,0.044,11.744-0.457c1.185-0.151,2.363-0.344,3.541-0.558c1.505-0.274,3.005-0.589,4.501-0.964&#10;&#9;&#9;c2.542-0.64,5.068-1.446,7.56-2.391c0.955-0.359,1.896-0.756,2.838-1.163c2.592-1.114,5.141-2.4,7.636-3.858&#10;&#9;&#9;c0.958-0.561,1.906-1.138,2.848-1.748c43.544-28.275,70.014-111.35,41.565-157.07c-6.719-10.799-17.669-19.074-30.105-24.168&#10;&#9;&#9;c8.896-20.195,22.807-38.544,36.62-55.042c18.381-21.959,39.269-42.529,62.199-59.823c21.188,37.237,27.944,80.188,41.556,120.503&#10;&#9;&#9;c-1.393,0.492-2.788,1.021-4.193,1.613c-21.153,8.902-34.245,31.057-41.623,51.643c-18.655,52.049-0.324,119.244,48.518,147.343&#10;&#9;&#9;c8.99,5.169,18.897,8.149,28.937,9.034c2.911,0.255,5.828,0.328,8.742,0.224c3.746-0.129,7.469-0.561,11.145-1.282&#10;&#9;&#9;c2.665-0.522,5.308-1.162,7.904-1.994c3.043-0.979,6.026-2.18,8.927-3.581c1.909-0.927,3.787-1.935,5.62-3.046&#10;&#9;&#9;c2.061-1.248,4.042-2.646,5.979-4.127c0.838-0.643,1.688-1.257,2.501-1.94c0.51-0.432,0.97-0.892,1.462-1.333&#10;&#9;&#9;c2.41-2.154,4.615-4.423,6.612-6.804c1.786-2.133,3.434-4.335,4.914-6.625c1.717-2.661,3.232-5.424,4.571-8.269&#10;&#9;&#9;c1.25-2.662,2.334-5.399,3.282-8.193c0.706-2.073,1.354-4.168,1.906-6.301c0.599-2.312,1.09-4.665,1.525-7.034&#10;&#9;&#9;c0.435-2.372,0.815-4.756,1.102-7.169c0.605-5.126,0.885-10.326,0.923-15.537C426.986,1001.182,426.983,999.686,426.954,998.192z&#10;&#9;&#9; M204.51,910.355c0.718,1.474,1.329,2.977,1.88,4.501c-1.162-1.959-2.366-3.9-3.664-5.815c-1.546-2.287-5.093,0.287-3.94,2.643&#10;&#9;&#9;c3.033,6.206,5.446,12.698,7.963,19.131c0.961,2.454,1.726,5.134,2.621,7.755c-0.11,1.887-0.28,3.774-0.51,5.667&#10;&#9;&#9;c-3.021-6.978-5.327-14.273-7.563-21.528c-1.008-3.279-5.909-1.628-5.027,1.645c2.18,8.086,4.542,16.078,7.601,23.881&#10;&#9;&#9;c0.901,2.3,1.884,4.76,3.037,7.153c-0.091,0.41-0.198,0.816-0.296,1.226c-0.139-0.324-0.306-0.648-0.432-0.97&#10;&#9;&#9;c-4.337-10.771-7.327-22.114-10.565-33.247c-1.137-3.903-6.917-2.435-6.744,1.402c0.129,2.857,0.255,5.714,0.384,8.572&#10;&#9;&#9;c0.066,1.455,0.857,2.28,1.843,2.592c1.802,7.96,4.039,15.775,6.754,23.563c1.304,3.746,2.715,8.275,4.615,12.538&#10;&#9;&#9;c-0.11,0.33-0.217,0.664-0.328,0.992c-0.662-1.67-1.313-3.32-1.906-4.931c-3.213-8.772-6.911-17.281-11.558-25.393&#10;&#9;&#9;c-1.887-3.301-7.425-1.194-5.588,2.306c4.344,8.294,7.623,16.925,10.584,25.796c1.461,4.369,2.63,9.15,4.252,13.678&#10;&#9;&#9;c-0.501,1.26-0.999,2.52-1.534,3.783c-1.506-3.264-3.109-6.471-4.417-9.593c-3.994-9.557-7.412-19.271-9.941-29.324&#10;&#9;&#9;c-0.766-3.04-6.051-1.843-5.362,1.222c2.051,9.119,4.794,17.946,8.008,26.722c0.958,2.615,1.877,5.432,2.841,8.288&#10;&#9;&#9;c-3.421-7.85-6.939-15.659-10.471-23.458c-1.027-2.269-4.987-0.665-4.051,1.644c3.305,8.165,6.596,16.34,9.803,24.549&#10;&#9;&#9;c1.962,5.027,3.557,10.581,5.799,15.685c-1.38,2.423-2.832,4.807-4.354,7.15c-0.589-1.105-1.156-2.214-1.647-3.336&#10;&#9;&#9;c-4.07-9.299-7.138-19.036-10.77-28.508c-1.538-4.011-7.737-1.862-6.3,2.218c3.377,9.579,6.357,19.294,9.979,28.785&#10;&#9;&#9;c1.018,2.665,2.095,5.629,3.367,8.533c-0.378,0.505-0.793,0.974-1.181,1.472c-0.249-0.567-0.514-1.141-0.734-1.691&#10;&#9;&#9;c-3.623-9.157-7.195-18.271-12.065-26.854c-1.972-3.484-7.182-0.403-5.336,3.1c4.829,9.186,8.171,18.941,11.674,28.682&#10;&#9;&#9;c0.366,1.011,0.725,2.092,1.093,3.197c-0.403,0.447-0.816,0.876-1.226,1.313c-0.658-1.04-1.301-2.076-1.902-3.115&#10;&#9;&#9;c-5.478-9.454-9.838-19.424-12.657-29.986c-0.967-3.629-6.672-2.766-5.834,1.015c2.224,10.026,5.727,19.401,10.131,28.672&#10;&#9;&#9;c1.374,2.892,2.841,6.052,4.445,9.211c-0.791,0.728-1.569,1.483-2.378,2.18c-0.501-0.897-0.97-1.802-1.38-2.718&#10;&#9;&#9;c-4.53-10.185-7.39-21.166-10.247-31.908c-0.671-2.51-4.508-1.518-3.906,1.015c2.637,11.085,5.528,22.069,9.608,32.727&#10;&#9;&#9;c0.498,1.298,1.042,2.75,1.622,4.24c-0.58,0.399-1.166,0.79-1.761,1.162c-4.076-10.165-7.715-20.517-11.378-30.833&#10;&#9;&#9;c-1.166-3.279-6.221-1.748-5.179,1.601c3.386,10.846,6.845,21.663,10.606,32.383c-0.955,0.422-1.921,0.81-2.901,1.172&#10;&#9;&#9;c-2.769-8.257-5.594-16.481-8.776-24.597c-1.389-3.544-6.82-1.644-5.582,1.985c2.769,8.117,7.888,24.385,10.316,32.609&#10;&#9;&#9;c-1.483,0.315-4.139-0.982-5.645-0.807c-0.293-1.103-2.114-8.69-2.394-9.797c-0.561-2.198-3.827-0.856-3.276,1.317&#10;&#9;&#9;c0.195,0.762-0.176,8.527,0.025,9.286c-4.076,0.186-5.67,0.038-9.677-0.807c-1.497-4.47-4.983-16.078-6.411-20.286&#10;&#9;&#9;c-0.693-2.051-3.969-1.323-3.308,0.787c1.093,3.49,4.013,14.122,4.879,17.887c-2.334-0.766-10.691-2.889-12.902-4.032&#10;&#9;&#9;c-17.877-9.236-29.318-35.883-30.645-54.837c-3.147-44.902,25.311-117.883,77.417-119.351c3.289-0.095,7.403,0.268,10.483,0.807&#10;&#9;&#9;c-0.428,2.217,0.829,7.573,0.611,9.819c-1.855-0.17-3.733-0.205-5.557-0.132c-3.267,0.132-6.136,1.94-7.793,4.555&#10;&#9;&#9;c-3.478,2.271-3.131,7.762-0.01,10.175c0.114,0.177,0.205,0.369,0.328,0.536c1.519,4.688,5.992,7.566,11.085,7.778&#10;&#9;&#9;c2.381,0.101,4.996-0.303,7.271-0.873c5.336-1.336,8.379-6.275,8.537-11.526c0.104-3.371-1.981-6.713-4.7-8.663&#10;&#9;&#9;c0.548-1.903,1.676-7.378,2.325-9.249C191.525,882.137,198.005,896.986,204.51,910.355z M288.788,565.293&#10;&#9;&#9;c4.429,12.512,10.206,24.455,16.777,36.019c0.428,0.756,1.836,0.441,1.547-0.501c-4.533-14.658-11.161-28.581-15.407-43.342&#10;&#9;&#9;c-0.328-1.144-1.197-1.739-2.136-1.925c0.053-0.526,0.075-1.055,0.129-1.581c3.853-38.287,15.423-79.354,39.981-109.938&#10;&#9;&#9;c4.196,49.554,34.087,93.983,30.32,144.895c-2.816,38.047-19.89,85.651-48.373,113.205c0.863-13.309-0.542-27.318,0.422-40.328&#10;&#9;&#9;c1.487-20.117,2.69-40.249,4.482-60.346c3.598-40.312,8.597-80.447,6.782-120.986c-0.113-2.555-3.768-2.331-3.906,0.145&#10;&#9;&#9;c-0.819,14.724-1.89,29.428-3.049,44.127c-1.776-6.893-4.218-13.571-7.321-20.088c-1.77-3.717-7.289-0.315-5.462,3.39&#10;&#9;&#9;c4.341,8.786,6.619,18.186,12.018,26.407c-1.853,22.438-3.947,44.857-6.108,67.27c-1.855,19.27-4.243,38.627-4.599,58&#10;&#9;&#9;c-3.862-23.903-9.113-47.661-17.105-70.207C287.858,581.432,288.205,573.361,288.788,565.293z M245.03,680.184&#10;&#9;&#9;c-16.207-18.107-29.935-38.346-43.836-58.227c-17.943-25.658-35.593-50.915-51.129-78.186&#10;&#9;&#9;c-14.617-25.651-28.66-51.636-44.794-76.358c52.638,13.221,106.104,24.832,141.969,69.579c14.065,17.552,23.49,38.4,30.701,59.874&#10;&#9;&#9;c3.626,10.805,6.704,21.767,9.507,32.553c2.029,7.803,3.875,15.662,5.56,23.563c4.395,20.605,7.607,41.5,9.586,62.454&#10;&#9;&#9;c-8.395-7.96-15.001-18.116-21.289-27.711c-0.542-0.829-1.052-1.679-1.584-2.514c0.095-0.362,0.11-0.756-0.076-1.168&#10;&#9;&#9;c-0.734-1.651-1.931-3.046-3.349-4.284c-1.695-2.794-3.333-5.62-4.942-8.461c-1.055-1.861-2.095-3.729-3.119-5.607&#10;&#9;&#9;c-0.296-0.542-0.599-1.087-0.892-1.632c0.208-0.447,0.24-0.977-0.047-1.543c-0.778-1.525-1.818-2.895-2.996-4.171&#10;&#9;&#9;c-1.981-3.758-3.931-7.532-5.862-11.318c0.454-0.643,0.545-1.483-0.173-2.158c-0.492-0.463-1.043-0.866-1.578-1.282&#10;&#9;&#9;c-1.506-2.961-3.012-5.922-4.521-8.88c-1.588-3.109-3.182-6.212-4.798-9.305c-0.066-0.132-0.135-0.265-0.205-0.397&#10;&#9;&#9;c-1.273-2.432-2.577-4.864-3.878-7.296c-1.874-3.497-3.777-6.987-5.714-10.474c-0.161-0.293-0.318-0.586-0.482-0.875&#10;&#9;&#9;c-3.03-5.44-6.158-10.852-9.355-16.236c-0.504-0.851-1.002-1.707-1.512-2.558c-4.07-6.779-8.272-13.501-12.629-20.129&#10;&#9;&#9;c-1.606-2.441-3.251-4.86-4.898-7.28c-2.495-3.657-5.027-7.289-7.62-10.877c-3.582-4.952-7.276-9.809-11.054-14.601&#10;&#9;&#9;c-3.074-3.9-6.199-7.752-9.412-11.526c-12.396-14.569-25.825-28.162-40.482-40.296c-2.202-1.824-5.384,1.282-3.563,3.503&#10;&#9;&#9;c9.375,11.454,19.146,22.46,28.798,33.561c-2.536-0.391-5.005-0.718-7.336-0.976c-2.753-0.309-3.576,4.331-0.822,4.804&#10;&#9;&#9;c4.942,0.847,9.734,2.038,14.462,3.487c4.59,5.355,9.129,10.764,13.549,16.279c-7.447-2.901-14.847-5.916-22.13-9.233&#10;&#9;&#9;c-2.784-1.27-4.306,2.961-1.713,4.334c9.771,5.176,19.739,9.901,29.854,14.361c0.662,0.293,1.348,0.605,2.022,0.911&#10;&#9;&#9;c1.077,1.433,2.126,2.892,3.182,4.347c-9.4-4.104-19.408-7.009-29.287-9.176c-3.191-0.699-4.315,3.918-1.229,4.889&#10;&#9;&#9;c13.593,4.272,25.714,10.386,37.905,17.631c1.115,0.662,2.205,1.386,3.289,2.133c1.66,2.542,3.317,5.084,4.93,7.654&#10;&#9;&#9;c-10.707-6.354-21.824-11.813-33.901-15.032c-3.096-0.825-4.826,3.68-1.713,4.744c13.296,4.54,24.889,11.999,36.443,19.836&#10;&#9;&#9;c2.788,1.89,5.689,4.104,8.694,6.3c0.866,1.493,1.742,2.98,2.596,4.483c-0.208-0.101-0.429-0.189-0.636-0.29&#10;&#9;&#9;c-11.107-5.393-21.348-12.112-29.435-21.521c-1.792-2.085-5.544,0.687-3.9,2.92c6.477,8.779,14.339,15.69,23.588,21.442&#10;&#9;&#9;c4.898,3.043,10.808,6.524,16.941,9.274c1.235,2.268,2.463,4.536,3.673,6.817c-9.526-4.063-18.96-8.338-28.379-12.635&#10;&#9;&#9;c-2.413-1.103-3.771,2.51-1.543,3.723c8.436,4.596,16.881,9.17,25.418,13.574c3.046,1.572,6.269,3.405,9.599,5.078&#10;&#9;&#9;c1.118,2.17,2.221,4.344,3.327,6.521c-2.618-1.03-5.201-2.051-7.563-3.238c-8.546-4.291-16.664-9.396-24.593-14.724&#10;&#9;&#9;c-2.167-1.458-4.313,1.818-2.23,3.358c7.689,5.695,15.593,11,23.865,15.813c4.441,2.583,9.838,6.076,15.3,8.231&#10;&#9;&#9;c0.321,0.643,0.643,1.282,0.967,1.925c-8.776-4.505-17.814-8.156-27.336-10.773c-3.235-0.888-5.141,3.887-1.853,4.958&#10;&#9;&#9;c8.275,2.696,16.154,6.143,23.79,10.319c3.922,2.146,7.756,5.182,11.709,7.825c0.076,0.145,0.151,0.29,0.227,0.435&#10;&#9;&#9;c-4.961-1.909-9.923-3.818-14.881-5.724c-2.372-0.911-3.415,2.791-1.127,3.742c5.355,2.224,10.707,4.448,16.062,6.675&#10;&#9;&#9;c1.037,0.431,2.089,0.913,3.153,1.408c0.882,1.651,1.786,3.286,2.684,4.924c-5.437-2.177-11.07-3.872-16.689-5.469&#10;&#9;&#9;c-1.767-0.504-2.306,2.054-0.693,2.684c6.218,2.429,12.311,5.031,18.195,8.187c1.147,0.614,2.29,1.364,3.434,2.151&#10;&#9;&#9;c0.876,1.521,1.749,3.043,2.646,4.549c-4.205-1.279-8.511-2.218-12.799-3.156c-2.577-0.564-3.216,3.27-0.756,3.963&#10;&#9;&#9;c4.53,1.276,9.044,2.57,13.448,4.24c1.528,0.577,3.008,1.393,4.504,2.148c3.324,5.248,6.814,10.386,10.528,15.366&#10;&#9;&#9;c1.645,2.205,3.714,4.901,6.086,7.746C271.235,708.812,257.003,693.56,245.03,680.184z M419.838,1017.024&#10;&#9;&#9;c-1.625-2.489-3.257-4.959-4.735-7.432c-4.904-8.216-9.522-16.601-14.374-24.848c-1.487-2.526-5.305-0.255-3.906,2.306&#10;&#9;&#9;c4.59,8.401,9,16.903,13.586,25.308c2.435,4.458,4.914,9.375,7.916,13.798c-0.419,1.953-0.885,3.894-1.437,5.806&#10;&#9;&#9;c-6.026-8.723-12.471-17.149-18.34-25.985c-1.726-2.602-5.431,0.255-3.849,2.848c4.936,8.103,10.269,15.942,15.492,23.862&#10;&#9;&#9;c1.436,2.177,2.772,4.508,4.079,6.893c-1.354,3.393-2.945,6.678-4.797,9.825c-6.193-9.164-11.791-18.722-16.992-28.48&#10;&#9;&#9;c-1.462-2.75-6.3-0.413-4.946,2.394c4.42,9.142,9.192,18.057,14.352,26.802c1.074,1.82,2.167,3.748,3.286,5.701&#10;&#9;&#9;c-1.093,1.434-2.228,2.842-3.453,4.193c-1.204,1.326-2.473,2.522-3.761,3.679c-4.325-5.302-8.364-10.836-12.226-16.481&#10;&#9;&#9;c-1.625-2.375-5.645-0.353-4.026,2.099c3.944,5.966,8.108,11.756,12.497,17.397c-1.972,1.452-3.998,2.775-6.105,3.891&#10;&#9;&#9;c-1.204-1.575-2.388-3.144-3.497-4.726c-5.147-7.343-10.292-14.66-15.996-21.587c-2.278-2.766-6.42,0.872-4.177,3.647&#10;&#9;&#9;c5.648,6.98,10.742,14.339,15.817,21.739c0.771,1.127,1.54,2.29,2.312,3.458c-3.355,1.282-6.826,2.177-10.361,2.763&#10;&#9;&#9;c-5.721-7.21-11.271-14.544-16.144-22.368c-1.808-2.898-6.596-0.734-4.876,2.375c3.985,7.191,8.49,14.024,13.18,20.762&#10;&#9;&#9;c-4.278,0.136-8.594-0.183-12.878-0.878c-2.028-3.072-3.975-6.2-5.736-9.451c-1.915-3.537-7.579-1.103-5.758,2.564&#10;&#9;&#9;c0.829,1.667,1.695,3.305,2.593,4.924c-9.501-2.763-18.522-7.358-26.121-13.259c-36.145-28.064-43.651-83.018-31.441-124.463&#10;&#9;&#9;c5.529-18.769,16.053-35.253,32.853-45.661c1.512-0.936,3.075-1.736,4.662-2.479c0.091,0.236,0.183,0.473,0.277,0.706&#10;&#9;&#9;c-0.164,0.838-0.126,1.686,0.132,2.463c-0.706,0.284-1.415,0.618-2.129,0.986c-0.479,0.249-0.955,0.495-1.44,0.781&#10;&#9;&#9;c-3.336,1.972-5.084,6.363-4.763,10.093c0.362,4.18,2.832,6.896,6.209,9.022c2.791,1.754,7.223,1.213,10.53,1.257&#10;&#9;&#9;c2.949,0.041,5.267-0.003,8.209-0.731c4.792-1.188,7.733-6.876,7.336-11.469c-0.447-5.179-4.237-8.808-9.101-10.018&#10;&#9;&#9;c-0.18-0.044-0.378-0.054-0.564-0.088c0.006-2.057-1.109-4.164-3.194-5.305c-0.022-0.012-0.038-0.016-0.057-0.028&#10;&#9;&#9;c-0.164-0.435-0.322-0.869-0.485-1.301c7.837-1.651,16.125-1.657,24.274-0.611c17.735,6.849,30.726,16.815,41.33,34.478&#10;&#9;&#9;c0.003,0.006,0.003,0.009,0.006,0.013c0.044,0.069,0.088,0.142,0.132,0.214c0.693,1.163,1.379,2.356,2.054,3.588&#10;&#9;&#9;c6.886,12.565,11.441,27.349,14.497,42.195c-6.996-9.314-13.41-19.039-19.256-29.12c-1.61-2.772-5.569-0.047-4.108,2.703&#10;&#9;&#9;c6.458,12.147,13.596,23.805,21.947,34.751c1.209,1.588,2.467,3.245,3.743,4.918c0.671,4.391,1.266,8.747,1.732,12.978&#10;&#9;&#9;c0.057,0.505,0.091,1.015,0.139,1.521c-5.185-8.127-10.209-16.38-14.932-24.728c-1.417-2.498-5.204-0.139-4.256,2.378&#10;&#9;&#9;c4.785,12.698,10.546,24.253,17.612,35.811c0.693,1.131,1.392,2.315,2.095,3.506&#10;&#9;&#9;C420.386,1011.631,420.156,1014.334,419.838,1017.024z" transform="matrix(1, 0, 0, 1, 274.8084470937349, 307.52373841441783)"/><path fill="#0C0C22" d="M307.09,615.487c-1.311-2.403-2.822-4.694-4.107-7.116c-1.364-2.583-2.4-5.333-3.667-7.966&#10;&#9;&#9;c-0.948-1.963-4.183-0.841-3.219,1.115c2.611,5.28,4.495,12.116,9.806,15.354C306.788,617.409,307.484,616.215,307.09,615.487z" transform="matrix(1, 0, 0, 1, 274.8084470937349, 307.52373841441783)"/><path fill="#0C0C22" d="M307.241,570.334c-3.774-5.639-6.577-11.785-10.2-17.508c-1.178-1.859-4.18-0.164-2.974,1.657&#10;&#9;&#9;c3.761,5.667,6.149,13.102,11.693,17.297C306.608,572.419,307.814,571.194,307.241,570.334z" transform="matrix(1, 0, 0, 1, 274.8084470937349, 307.52373841441783)"/><path fill="#0C0C22" d="M307.487,556.392c0.551,0.895,2.255,0.563,2.104-0.608c-0.914-7.079-5.425-13.25-7.677-19.921&#10;&#9;&#9;c-0.885-2.624-5.072-1.405-4.121,1.172C300.257,543.706,303.76,550.34,307.487,556.392z" transform="matrix(1, 0, 0, 1, 274.8084470937349, 307.52373841441783)"/><path fill="#0C0C22" d="M311.475,547.877c0.901,1.455,2.841,0.626,2.7-0.983c-0.589-6.615-3.569-13.24-5.592-19.54&#10;&#9;&#9;c-0.917-2.86-5.531-1.821-4.555,0.989C306.252,534.769,307.868,542.065,311.475,547.877z" transform="matrix(1, 0, 0, 1, 274.8084470937349, 307.52373841441783)"/>


<path fill="#0C0C22" d="M848.083,868.387c-0.142,2.548,2.958,3.128,4.545,1.792c2.435-2.051,3.355-5.459,4.545-8.313&#10;&#9;&#9;c1.462-3.497,2.889-7.005,4.325-10.515c0.977-2.385-2.202-4.256-3.582-1.95c-1.931,3.235-3.875,6.467-5.787,9.715&#10;&#9;&#9;C850.398,862.059,848.275,864.922,848.083,868.387z" transform="matrix(1, 0, 0, 1, 0, 7.105427357601002e-15)"/><path fill="#0C0C22" d="M1147.04,763.054c-0.227-1.437-2.731-1.071-2.523,0.372c1.361,9.432,1.657,18.964,1.846,28.477&#10;&#9;&#9;c0.117,5.84-1.676,14.635,1.052,19.965c0.274,0.536,1.105,0.491,1.367-0.025c2.718-5.305,0.803-14.232,0.621-19.99&#10;&#9;&#9;C1149.097,782.229,1148.571,772.574,1147.04,763.054z" transform="matrix(1, 0, 0, 1, 0, 7.105427357601002e-15)"/><path fill="#0C0C22" d="M1158.695,767.956c-0.025-1.871-2.895-1.814-2.898,0.051c-0.006,10.275,0.492,20.545,1.002,30.808&#10;&#9;&#9;c0.362,7.312-1.005,17.546,1.877,24.338c0.258,0.617,1.31,1.018,1.644,0.189c2.495-6.199,0.407-14.872,0.032-21.383&#10;&#9;&#9;C1159.697,790.627,1158.862,779.309,1158.695,767.956z" transform="matrix(1, 0, 0, 1, 0, 7.105427357601002e-15)"/><path fill="#0C0C22" d="M1167.276,784.027c1.959,15.896-0.161,32.698,2.741,48.31c0.183,0.989,1.758,0.926,1.937-0.035&#10;&#9;&#9;c2.835-15.259,0.306-33.073-1.849-48.326C1169.853,782.207,1167.055,782.207,1167.276,784.027z" transform="matrix(1, 0, 0, 1, 0, 7.105427357601002e-15)"/><path fill="#0C0C22" d="M1184.394,825.155c0.211-12.972-1.235-26.042-2.867-38.888c-0.22-1.761-2.993-1.748-2.788,0.047&#10;&#9;&#9;c1.238,10.748,2.091,21.515,2.384,32.333c0.246,9.038-2.432,18.396-1.846,27.167c0.044,0.712,0.951,1.169,1.474,0.58&#10;&#9;&#9;C1185.203,841.41,1184.296,831.348,1184.394,825.155z" transform="matrix(1, 0, 0, 1, 0, 7.105427357601002e-15)"/><path fill="#0C0C22" d="M1193.082,799.999c-0.019-1.94-2.983-1.884-3.005,0.05c-0.088,10.27-0.186,20.539-0.255,30.808&#10;&#9;&#9;c-0.047,7.214-2.003,17.603,0.863,24.35c0.274,0.649,1.349,1.043,1.71,0.192c2.627-6.159,0.97-14.837,0.948-21.402&#10;&#9;&#9;C1193.308,822.664,1193.176,811.333,1193.082,799.999z" transform="matrix(1, 0, 0, 1, 0, 7.105427357601002e-15)"/><path fill="#0C0C22" d="M624.508,813.437c-0.362-0.725-1.437-0.079-1.077,0.636c4.668,9.318,9.245,19.631,16.286,27.431&#10;&#9;&#9;c0.306,0.337,0.832-0.107,0.614-0.482C634.909,831.827,629.296,823.022,624.508,813.437z" transform="matrix(1, 0, 0, 1, 0, 7.105427357601002e-15)"/><path fill="#0C0C22" d="M656.443,845.542c-7.484-12.411-16.05-23.714-22.659-36.755c-0.45-0.888-1.767-0.094-1.323,0.781&#10;&#9;&#9;c6.271,12.459,13.161,26.694,23.2,36.592C656.065,846.557,656.733,846.028,656.443,845.542z" transform="matrix(1, 0, 0, 1, 0, 7.105427357601002e-15)"/><path fill="#0C0C22" d="M658.012,830.076c0.334,0.34,0.857-0.107,0.643-0.507c-2.353-4.331-5.242-8.313-7.481-12.732&#10;&#9;&#9;c-2.101-4.149-3.938-8.427-5.988-12.597c-0.41-0.832-1.641-0.095-1.235,0.728C648.102,813.346,651.419,823.24,658.012,830.076z" transform="matrix(1, 0, 0, 1, 0, 7.105427357601002e-15)"/><path fill="#0C0C22" d="M680.901,827.786c0.315,0.353,0.879-0.117,0.639-0.507c-6.111-9.979-12.874-19.329-18.217-29.806&#10;&#9;&#9;c-0.306-0.599-1.191-0.063-0.895,0.529C667.576,808.195,673.303,819.183,680.901,827.786z" transform="matrix(1, 0, 0, 1, 0, 7.105427357601002e-15)"/><path fill="#0C0C22" d="M692.342,814.291c0.485,0.359,1.141-0.369,0.813-0.844c-3.251-4.703-7.305-8.786-10.537-13.549&#10;&#9;&#9;c-3.903-5.746-7.006-12.033-9.636-18.45c-0.479-1.163-2.378-0.64-1.896,0.532C675.709,793.216,682.28,806.897,692.342,814.291z" transform="matrix(1, 0, 0, 1, 0, 7.105427357601002e-15)"/><path fill="#0C0C22" d="M699.033,804.875c0.428,0.548,1.209,0.088,0.926-0.548c-5.276-11.772-13.026-22.252-18.012-34.267&#10;&#9;&#9;c-0.384-0.926-1.903-0.517-1.519,0.422C685.248,782.213,691.252,794.82,699.033,804.875z" transform="matrix(1, 0, 0, 1, 0, 7.105427357601002e-15)"/>

<path fill="#231F20" d="M525.77,1252.522c-15.356-18.604-40.652-25.119-63.704-26.237c-25.368-1.226-47.563,8.518-72.068,11.192&#10;&#9;&#9;c-12.453,1.357-24.772-1.806-37.023-3.197c-10.234-1.159-21.54,1.379-31.605,2.872c-10.83,1.604-21.597,3.585-32.427,5.195&#10;&#9;&#9;c-10.604,1.571-18.919-3.938-27.721-9.088c-22.013-12.878-51.051,5.185-71.3,14.226c-7.56,3.373-14.868,7.308-22.951,9.296&#10;&#9;&#9;c-13.47,3.313-27.854,2.986-41.619,3.601c-30.789,1.373-64.501,2.614-81.317,32.512c-8.455,15.036-13.085,33.42-8.858,50.383&#10;&#9;&#9;c4.347,17.42,18.438,31.344,31.003,43.761c2.86,20.816,6.048,41.541,9.696,62.168c-6.779,3.909-12.525,9.561-16.267,16.727&#10;&#9;&#9;c-2.86,5.481-2.955,10.984-1.071,15.322c1.209,2.781,3.226,5.075,5.903,6.564c4.29,0.382,8.732,0.57,13.154,0.927&#10;&#9;&#9;c2.016,0.163,4.032,0.362,6.023,0.633c6.344,30.291,13.854,60.353,22.948,90.146c15.763,51.655,34.995,101.934,57.247,150.987&#10;&#9;&#9;c0.646,1.411,1.32,2.816,1.969,4.228c6.549,14.305,13.316,28.521,20.372,42.617c64.507,128.858,147.831,248.59,244.262,355.546&#10;&#9;&#9;c3.487,3.868,8.212,4.753,12.679,1.877c14.711-9.46,19.946-28.594,23.563-44.608c5.623-24.927,7.113-50.622,8.354-76.071&#10;&#9;&#9;c0.744-15.146,1.078-30.305,1.386-45.463c2.268-1.465,4.448-3.074,6.495-4.87c23.21-20.346,24.483-58.718,0.567-77.924&#10;&#9;&#9;c-0.763-1.096-1.594-2.157-2.467-3.197c1.434-15.104,2.983-30.203,4.234-45.286c7.267-87.547,17.524-174.606,27.711-261.845&#10;&#9;&#9;c5.009-42.87,9.96-85.749,12.922-128.817c1.934-28.099,2.482-55.962-8.562-82.057C542.95,1333.99,552.429,1284.826,525.77,1252.522&#10;&#9;&#9;z M81.515,1479.071c-3.339-0.146-6.697-0.095-10.011,0.088c-6.691-5.528-1.802-14.166,5.991-21.015&#10;&#9;&#9;c0.013-0.016,0.031-0.031,0.05-0.047c3.421-2.999,7.12-4.971,10.95-6.155c15.284-4.741,32.786,3.575,44.306,14.289&#10;&#9;&#9;c14.878,13.835,19.959,35.148,26.641,53.504c5.613,15.433,10.66,31.29,18.232,45.919c-0.743,0.838-1.209,1.881-1.417,3.005&#10;&#9;&#9;c-0.139,0.139-0.277,0.281-0.416,0.419c-8.064,7.945,2.57,19.776,11.851,17.169c-0.362,1.773-1.758,2.778-5.097,2.211&#10;&#9;&#9;c-4.202-0.712-7.888-2.866-11.384-5.163c-7.636-5.015-13.148-13.596-17.584-21.352c-8.786-15.354-12.524-33.482-22.296-48.307&#10;&#9;&#9;c-7.541-11.447-15.889-23.452-28.496-29.684c-2.293-1.131-4.69-2.025-7.151-2.73C91.129,1479.918,86.341,1479.282,81.515,1479.071z&#10;&#9;&#9; M181.682,1429.396c0.674-0.469,0.901-1.165,0.841-1.82c8.987-1.984,18.62-2.022,27.434-1.19&#10;&#9;&#9;c27.438,2.589,57.237,21.278,51.079,52.411c-1.528,7.728-4.407,14.005-8.25,18.995c-0.076-1.068-0.492-2.18-1.393-3.245&#10;&#9;&#9;c-4.879-5.761-11.895-10.026-17.653-14.887c-3.22-2.719-7.447,1.326-4.697,4.586c4.854,5.749,9.107,12.758,14.862,17.628&#10;&#9;&#9;c1.191,1.012,2.467,1.418,3.67,1.408c-10.89,9.356-26.442,11.621-41.836,8.442c0.58-2,0.75-4.281,0.866-6.137&#10;&#9;&#9;c0.214-3.445,0.416-6.477,1.95-9.629c1.326-2.726-2.397-5.907-4.476-3.308c-3.248,4.066-7.878,10.36-8.307,16.261&#10;&#9;&#9;c-2.838-1.024-5.626-2.23-8.342-3.604c-12.597-6.369-24.315-16.878-28.943-30.533&#10;&#9;&#9;C152.089,1455.898,167.431,1439.247,181.682,1429.396z M174.241,1728.389c-5.405-11.797-6.25-23.582-3.761-34.592&#10;&#9;&#9;c3.755-16.642,15.14-31.514,29.977-41.949c21.011-14.783,52.773-22.479,67.368,4.514c0.967,1.789,4.061,0.287,3.207-1.563&#10;&#9;&#9;c-3.415-7.415-7.73-12.953-12.664-16.888c0.63,0.136,1.276,0.243,1.89,0.4c17.37,4.42,30.644,17.833,38.183,33.646&#10;&#9;&#9;c13.914,29.198,11.009,69.841-11.64,93.926c-22.986,24.438-58.22,15.499-83.976-3.896&#10;&#9;&#9;C190.117,1752.414,179.709,1740.312,174.241,1728.389z M483.555,1914.997c-0.639,3.333,4.177,4.168,5.084,1.005&#10;&#9;&#9;c0.536-1.861,0.882-3.686,1.118-5.484c0.964,2.911,1.66,5.982,1.975,9.309c1.128,11.927-4.605,23.5-12.147,32.329&#10;&#9;&#9;c-0.926,1.084-1.899,2.092-2.895,3.06c-4.709,4.583-10.134,7.865-15.924,9.938c-19.064,6.819-42.022,0.569-55.996-15.42&#10;&#9;&#9;c-18.444-21.105-11.296-58.085,10.175-74.075c14.081-10.489,34.771-7.985,49.856,1.796c3.872,2.511,7.368,5.503,10.292,8.88&#10;&#9;&#9;c1.146,1.323,2.199,2.709,3.156,4.143c0.636,0.951,1.222,1.922,1.764,2.917C483.518,1899.842,485.045,1907.185,483.555,1914.997z&#10;&#9;&#9; M506.728,1480.851c-7.733,86.253-21.925,171.81-30.099,258.009c-4.133,43.572-8.231,87.292-11.299,131.057&#10;&#9;&#9;c-13.678-7.708-30.556-10.858-43.969-7.431c-36.377,9.292-44.378,59.552-28.316,87.991c13.571,24.022,42.706,32.418,67.469,25.346&#10;&#9;&#9;c-0.526,29.006-1.5,58.034-5.346,86.82c-2.016,15.104-4.523,39.137-16.141,52.029c-84.47-105.219-164.051-214.524-226.706-334.316&#10;&#9;&#9;c9.28,4.842,19.033,8.304,28.638,10.012c74.796,13.303,92.66-89.123,55.917-137.352c0.385,0.066,0.747,0.155,1.159,0.192&#10;&#9;&#9;c11.763,1.106,27.019-12.206,33.656-20.718c0.142-0.18,0.262-0.381,0.397-0.567c-1.814,9.838-1.726,20.271,2.646,29.079&#10;&#9;&#9;c7.019,14.134,21.286,16.705,35.867,15.477c1.241-0.104,2.722-0.999,2.854-2.379c0.69-7.056-1.336-13.444-4.397-19.795&#10;&#9;&#9;c-4.373-9.079-12.569-19.853-3.585-26.679c0.198,0.218,0.432,0.457,0.684,0.716c0.829,1.414,2.523,2.188,4.287,0.895&#10;&#9;&#9;c8.027-5.885,12.342,22.107,13.634,26.778c3.144,11.375,6.458,27.17,16.809,34.394c12.339,8.615,25.024-3.52,32.698-12.585&#10;&#9;&#9;c11.092-13.102,2.495-29.74-1.361-44.574c-1.323-5.106-8.505-22.885-1.121-26.209c16.342-7.358,12.046,19.642,13.807,26.732&#10;&#9;&#9;c4.533,18.255,27.894,10.713,33.545-2.767c6.854-16.346,0.388-38.339-11.195-50.65c-16.33-17.354-44.25-21.969-66.877-20.276&#10;&#9;&#9;c-31.211,2.337-49.135,21.563-60.362,47.371c0.847-8.172,0.693-16.481,0.454-23.279c-0.57-16.191-5.333-31.536-10.736-46.694&#10;&#9;&#9;c5.229-4.303,16.935-13.457,21.245-11.098c13.192,7.214,28.59,5.037,42.892,4.489c2.637-0.101,4.022-2.127,3.755-4.625&#10;&#9;&#9;c-3.301-30.329-39.66-31.728-62.161-23.884c-5.78,2.013-10.899,4.6-15.448,7.661c-4.07-12.673-7.082-25.494-6.962-38.854&#10;&#9;&#9;c0.013-1.653-1.15-3.547-2.876-3.884c-2.388-0.466-4.593-0.646-6.646-0.602c0.031-0.025,0.076-0.06,0.11-0.085&#10;&#9;&#9;c-0.888-1.298-14.084,1.912-14.777,3.899c-7.302,20.845-1.33,40.303,6.971,59.83c0.677,1.591,1.357,3.159,2.038,4.716&#10;&#9;&#9;c-5.094,9.314-8.685,19.71-11.495,30.427c-0.287,0.195-0.545,0.46-0.709,0.863c-5.311,12.925-9.274,23.478-5.689,37.555&#10;&#9;&#9;c0.662,2.584,3.32,3.531,5.629,2.536c16.283-7.012,17.618-26.804,22.81-42.444c1.733,8.65,1.591,17.537-2.06,27.305&#10;&#9;&#9;c-2.778,7.435-19.72,37.197-17.817,52.623c-0.035-0.031-0.066-0.063-0.101-0.095c-26.473-23.834-73.907-21.421-98.705,3.884&#10;&#9;&#9;c-8.36,6.414-15.612,13.983-20.73,21.727c-2.026,3.062-3.714,6.148-5.15,9.242c-25.799-59.852-47.806-121.767-64.816-184.734&#10;&#9;&#9;c1.606,0.857,3.15,1.855,4.627,3.027c12.783,10.162,20.082,26.593,26.562,41.103c10.294,23.074,28.077,63.799,59.496,60.637&#10;&#9;&#9;c2.117-0.215,4.086-1.185,4.675-3.428c1.323-5.012,1.424-9.095,0.17-12.72c6.883-3.453,15-3.95,22.618-3.002&#10;&#9;&#9;c8.716,1.083,17.067-9.901,10.433-17.37c-8.165-9.192-18.447-12.632-30.335-9.119c-6.407,1.89-12.664,5.806-17.313,10.908&#10;&#9;&#9;c-11-22.784-13.07-48.253-22.328-71.725c4.291,5.733,9.715,10.732,15.266,14.875c27.167,20.258,73.719,24.467,91.287-10.046&#10;&#9;&#9;c17.322-34.036-2.501-65.254-36.122-76.235c-71.432-23.333-79.162,44.791-79.175,47.296c-0.019,3.002,0.369,5.903,1.081,8.7&#10;&#9;&#9;c-10.001-16.358-25.456-30.921-44.388-33.482c-6.281-0.854-12.707-0.353-18.781,1.323c-4.271-18.897-8.051-37.861-11.34-56.865&#10;&#9;&#9;c-0.013-0.31-0.054-0.624-0.164-0.952c-0.233-1.345-0.473-2.693-0.7-4.038c1.84-0.602,3.516-1.899,4.605-4.092&#10;&#9;&#9;c15.146-30.446,47.856-29.882,77.562-28.527c35.271,1.609,68.326-4.716,102.397-13.549c60.762-15.75,130.206-35.898,191.91-12.833&#10;&#9;&#9;c22.089,8.256,39.767,23.647,49.989,44.665c0.173,0.763,0.513,1.478,0.967,2.117c0.334,0.733,0.684,1.458,0.999,2.205&#10;&#9;&#9;C517.148,1406.158,509.843,1446.073,506.728,1480.851z M313.759,1552.729c-0.807-2.123-1.669-4.208-2.542-6.253&#10;&#9;&#9;c-0.848-1.991-1.711-3.943-2.539-5.834c-0.618-1.401-1.257-2.804-1.903-4.202c-1.383-2.983-2.819-5.966-4.25-8.956&#10;&#9;&#9;c-5.531-11.592-10.827-23.298-11.895-35.564c0.491-0.252,0.265-0.314-0.032-0.517c-0.085-1.052-0.126-2.11-0.145-3.172&#10;&#9;&#9;c1.61-7.592,6.861-13.829,14.799-13.549c0.788,13.583,4.738,26.502,9.545,39.257c1.127,2.995,2.299,5.985,3.487,8.968&#10;&#9;&#9;c1.691,4.253,3.412,8.503,5.071,12.765c0.7,1.796,1.389,3.591,2.06,5.393c2.017,5.412,3.881,10.865,5.409,16.394&#10;&#9;&#9;c4.567,16.525,9.614,34.891,6.344,52.023c-3.383,17.704-17.748,31.593-35.118,35.158c-11.391,2.338-0.126-20.037,1.957-25.1&#10;&#9;&#9;c5.087-12.386,11.013-24.945,13.797-38.104C319.813,1571.951,317.293,1562.02,313.759,1552.729z M305.606,1553.892&#10;&#9;&#9;c-0.211,0.331-0.435,0.643-0.633,0.98c-7.104,11.882-7.186,32.527-18.343,41.764c-0.416-3.554-0.479-7.268-0.258-11.016&#10;&#9;&#9;c4.684-14.232,8.937-28.452,15.612-41.094C303.307,1547.671,304.535,1550.783,305.606,1553.892z M323.036,1518.933&#10;&#9;&#9;c1.651-1.254,3.368-2.467,5.195-3.61c19.234-12.027,50.055-13.652,60.52,8.713c-12.824,1.459-26.618,0.416-38.299-4.939&#10;&#9;&#9;c-1.386-0.636-2.489-0.582-3.73,0.344c-6.042,4.518-12.563,8.594-18.818,12.956&#10;&#9;&#9;C326.271,1527.903,324.617,1523.421,323.036,1518.933z M424.705,1640.725c1.972,8.244,4.927,16.68,5.154,25.213&#10;&#9;&#9;c0.154,5.847-13.627,16.759-19.335,17.414c-17.281,1.987-19.994-71.658-40.551-61.609c-0.621-1.582-2.334-2.737-4.079-2.082&#10;&#9;&#9;c-23.664,8.87-4.902,29.762,0.856,44.832c5.195,13.58-19.102,1.121-22.983-4.69c-5.667-8.486-4.158-21.342-2.46-30.752&#10;&#9;&#9;c3.588-19.898,15.111-41.682,32.509-52.732c24.098-15.307,62.318-11.186,84.804,4.983c10.553,7.589,14.604,18.069,15.7,30.56&#10;&#9;&#9;c0.526,6.001-0.633,12.565-3.081,18.068c-4.265,9.573-19.089,9.938-20.066-1.65c-0.573-6.829,1.207-16.646-4.334-22.051&#10;&#9;&#9;c-4.631-4.517-12.553-7.283-18.828-4.81C415.35,1606.407,422.551,1631.722,424.705,1640.725z M434.713,1287.92&#10;&#9;&#9;c-46.442-6.376-92.758,2.255-138.469,9.11c-0.762,0.116-0.599,1.448,0.17,1.354c40.013-4.867,80.851-10.064,121.216-6.723&#10;&#9;&#9;c20.643,1.711,41.55,6.373,59.474,17.105c12.48,7.472,19.972,18.153,24.785,30.479c-42.728-51.271-127.604-44.028-186.958-31.938&#10;&#9;&#9;c-52.046,10.606-101.94,29.938-155.801,27c-34.853-1.903-69.784-0.611-89.573,29.431c-1.386,2.107-2.703,4.363-3.938,6.764&#10;&#9;&#9;c-0.668-1.077-1.335-2.155-2.003-3.232c-4.042-6.549-8.007-13.142-11.403-20.085c-7.645-15.624-2.425-34.459,5.412-48.931&#10;&#9;&#9;c13.401-24.737,46.779-22.945,70.903-23.814c21.757-0.784,41.052-1.458,60.825-11.013c13.277-6.41,26.766-12.005,40.331-17.764&#10;&#9;&#9;c14.094-5.988,21.37-2.45,33.555,4.275c18.699,10.322,37.896,3.771,57.707,0.712c10.212-1.582,20.819-3.566,31.189-3.027&#10;&#9;&#9;c6.114,0.321,12.112,1.237,18.125,2.041c-8.02,0.709-15.987,2.268-23.868,5.251c-1.657,0.627-0.419,3.106,1.226,2.467&#10;&#9;&#9;c16.371-6.395,35.86-4.061,53.044-3.166c14.714,0.769,29.463,1.487,44.17-0.334c1.786-0.224,1.169-2.841-0.561-2.696&#10;&#9;&#9;c-15.029,1.26-30.144-0.372-45.176-1.364c5.677-1.049,11.227-2.64,16.859-4.114c15.917-4.164,32.509-6.058,48.934-5.194&#10;&#9;&#9;c25.365,1.336,49.025,12.579,59.175,36.79c9.75,23.248,1.563,47.044-10.219,67.941&#10;&#9;&#9;C506.362,1309.473,469.739,1292.73,434.713,1287.92z" transform="matrix(1, 0, 0, 1, 886.5843947905023, -572.5175981119481)"/><path fill="#231F20" d="M449.251,1359.084c-5.39-1.2-10.61-1.657-15.707-1.563c-32.584-7.211-62.41,10.102-74.21,42.142&#10;&#9;&#9;c-12.008,32.591-2.98,73.813,28.811,91.441c32.831,18.201,80.936,13.394,102.485-19.537c17.741-27.104,13.671-67.469-7.522-91.539&#10;&#9;&#9;C474.237,1369.958,462.45,1362.022,449.251,1359.084z M440.758,1491.508c-42.942,5.15-75.691-25.293-73.728-67.923&#10;&#9;&#9;c0.771-16.815,6.965-32.231,16.973-43.544c0.595,0.202,1.502,0.488,2.101-0.139c11.025-11.529,47.018-21.594,73.334-9.104&#10;&#9;&#9;c16.164,7.671,26.53,24.603,30.978,41.396C500.238,1449.277,480.131,1486.789,440.758,1491.508z" transform="matrix(1, 0, 0, 1, 886.5843947905023, -572.5175981119481)"/><path fill="#231F20" d="M308.051,1387.866c-3.512-3.217-6.414-7.926-10.247-10.666c-5.762-4.121-10.348-18.815-1.191-10.308&#10;&#9;&#9;c6.738,6.263,8.376,10.074,11.202,18.432c2.013,5.957,7.557,4.28,11.608,1.612c7.22-4.757,3.434-18.251,1.726-24.64&#10;&#9;&#9;c-12.61-47.211-81.619-25.683-91.709,11.844c-4.558,16.951-0.243,41.695,16.768,50.144c11.34,5.633,31.974,1.765,23.235-13.917&#10;&#9;&#9;c-2.804-5.043-7.025-9.388-10.691-13.794c-5.053-6.073-3.932-7.302-1.248-5.361c0.113,0.252,0.252,0.504,0.441,0.749&#10;&#9;&#9;c11.529,14.885,32.396,39.206,53.81,34.305c7.421-1.697,15.382-6.845,14.667-15.243&#10;&#9;&#9;C325.609,1401.428,314.471,1393.738,308.051,1387.866z M302.012,1418.463c-5.768-1.226-10.978-5.097-15.669-8.474&#10;&#9;&#9;c-8.074-5.809-15.334-13.277-22.136-20.611c-0.479-0.517-0.958-1.033-1.43-1.547c-0.044-0.047-0.091-0.094-0.132-0.142&#10;&#9;&#9;c-0.186-0.198-0.378-0.365-0.574-0.504c-2.577-2.101-5.834-3.071-10.641-2.709c-1.852,0.139-3.71,1.264-3.71,3.371&#10;&#9;&#9;c0,9.569,8.133,15.876,13.785,23.329c8.893,11.722-11.038,7.145-16.311,2.646c-7.882-6.726-9.28-19.735-9.173-29.347&#10;&#9;&#9;c0.246-21.783,19.417-36.601,39.039-41.349c10.267-2.481,21.286-1.231,29.907,4.893c5.245,3.727,8.638,9.548,10.452,15.564&#10;&#9;&#9;c0.529,1.884,0.973,3.79,1.329,5.715c0.161,1.023,0.318,2.051,0.476,3.077c1.405,4.47-0.107,7.825-4.536,10.062&#10;&#9;&#9;c-1.001-3.251-0.151-9.359-3.833-11.321c-4.388-2.334-7.104-8.606-11.249-11.624c-9.658-7.034-16.16,3.097-13.051,13.199&#10;&#9;&#9;c2.117,6.87,8.263,8.523,12.512,14.115c6.048,7.96,14.909,13.369,20.324,21.899C322.97,1417.496,306.243,1419.364,302.012,1418.463&#10;&#9;&#9;z" transform="matrix(1, 0, 0, 1, 886.5843947905023, -572.5175981119481)"/><path fill="#231F20" d="M310.99,1833.174c-0.495,2.06,0.929,4.948,3.431,4.684c9.167-0.977,18.547-0.841,26.366,3.688&#10;&#9;&#9;c-24.004,2.697-87.61,12.1-59.238,45.063c10.771,12.509,31.753-2.618,41.808-8.25c3.903-2.187,7.847-4.498,12.056-6.052&#10;&#9;&#9;c1.978-0.73,4.089-1.077,6.187-0.733c10.128,1.666-1.896,4.772-4.983,5.087c-10.839,1.109-18.655,1.484-22.356,12.947&#10;&#9;&#9;c-0.274,0.841,0.101,1.975,0.91,2.4c32.894,17.124,74.639-17.492,60.28-52.976C364.844,1812.817,319.385,1798.129,310.99,1833.174z&#10;&#9;&#9; M341.259,1890.779c-3.957,1.291-8.159,1.357-12.267,1.206c-9.639-0.353-7.9-8.612-0.844-11.331&#10;&#9;&#9;c5.503-2.123,15.19-1.867,21.203-2.689c1.144-0.158,2.051-1.667,1.664-2.75c-8.968-25.394-43.884,8.971-58.129,10.023&#10;&#9;&#9;c-9.394,0.696-14.125-12.405-10.477-19.565c3.849-7.544,15.202-10.421,22.573-12.455c10.647-2.939,22.089-3.273,32.875-5.674&#10;&#9;&#9;c3.919,0.17,7.787-0.016,11.803-0.835c2.706-0.551,3.475-3.991,1.752-5.916c-8.351-9.33-20.016-11.283-31.819-10.644&#10;&#9;&#9;c10.653-25.954,48.266-3.932,53.378,17.808C377.614,1867.714,357.731,1885.411,341.259,1890.779z" transform="matrix(1, 0, 0, 1, 886.5843947905023, -572.5175981119481)"/><path fill="#231F20" d="M434.864,1386.234c-8.59-0.646-7.475,11.501-7.847,16.869c-0.303,4.362-1.336,9.569,0.34,13.771&#10;&#9;&#9;c1.739,4.363,6.937,4.294,9.277,0.583c2.132-3.383,2.076-8.178,2.372-12.018c0.353-4.539,0.787-9.104,0.734-13.659&#10;&#9;&#9;C439.712,1389.315,437.432,1386.43,434.864,1386.234z" transform="matrix(1, 0, 0, 1, 886.5843947905023, -572.5175981119481)"/><path fill="#231F20" d="M452.168,1425.765c-0.479,3.714,5.169,4.6,6.294,1.188c2.564-7.79,9.333-7.979,16.071-10.159&#10;&#9;&#9;c6.628-2.145,4.811-11.277-2.161-10.581C461.942,1407.252,453.484,1415.536,452.168,1425.765z" transform="matrix(1, 0, 0, 1, 886.5843947905023, -572.5175981119481)"/><path fill="#231F20" d="M455.787,1451.763c-3.216-1.654-7.012-2.69-10.502-3.61c-3.456-0.907-5.547,4.401-2.227,5.895&#10;&#9;&#9;c3.219,1.445,5.739,3.55,8.581,5.588c2.816,2.022,5.635,4.807,9.277,4.611c2.476-0.135,4.58-2.63,3.689-5.128&#10;&#9;&#9;C463.237,1455.281,459.236,1453.536,455.787,1451.763z" transform="matrix(1, 0, 0, 1, 886.5843947905023, -572.5175981119481)"/><path fill="#231F20" d="M416.924,1461.581c-0.337-3.591-5.869-3.267-6.193,0.192c-0.296,3.197-0.514,6.398-1.084,9.558&#10;&#9;&#9;c-0.712,3.932-2.375,7.078-0.617,11.022c1.979,4.436,7.963,3.704,9.775-0.369c1.49-3.361,0.224-6.351-0.583-9.689&#10;&#9;&#9;C417.381,1468.805,417.252,1465.141,416.924,1461.581z" transform="matrix(1, 0, 0, 1, 886.5843947905023, -572.5175981119481)"/><path fill="#231F20" d="M399.851,1439.445c-7.353-0.684-15.051-0.885-22.095,1.557c-6.297,2.183-2.766,11.564,3.528,9.643&#10;&#9;&#9;c6.231-1.902,11.832-4.816,18.365-5.642C402.699,1444.621,403.127,1439.748,399.851,1439.445z" transform="matrix(1, 0, 0, 1, 886.5843947905023, -572.5175981119481)"/><path fill="#231F20" d="M400.705,1417.527c-6.168-2.552-11.066-7.689-16.459-11.529c-4.974-3.537-10.887,4.086-5.84,7.394&#10;&#9;&#9;c6.681,4.382,12.307,9.132,20.488,10.386C402.557,1424.341,404.173,1418.961,400.705,1417.527z" transform="matrix(1, 0, 0, 1, 886.5843947905023, -572.5175981119481)"/><path fill="#231F20" d="M411.519,1403.037c-0.885-3.166-2.388-6.023-4.253-8.723c-1.575-2.287-4.385-6.096-7.314-6.237&#10;&#9;&#9;c-2.422-0.12-4.252,1.442-4.139,3.953c0.129,2.845,2.826,4.482,4.605,6.43c1.978,2.17,3.724,4.341,4.908,7.053&#10;&#9;&#9;C407.077,1409.532,412.653,1407.106,411.519,1403.037z" transform="matrix(1, 0, 0, 1, 886.5843947905023, -572.5175981119481)"/><path fill="#231F20" d="M197.517,1458.753c0.375,3.493,5.906,3.922,6.297,0.255c0.671-6.344,2.054-14.153-0.926-20.107&#10;&#9;&#9;c-2.028-4.061-8.958-3.25-8.285,1.888C195.397,1446.801,196.871,1452.692,197.517,1458.753z" transform="matrix(1, 0, 0, 1, 886.5843947905023, -572.5175981119481)"/><path fill="#231F20" d="M226.93,1463.855c6.914-1.219,13.785-2.422,19.757-6.287c5.657-3.66,0.378-12.714-5.302-9.038&#10;&#9;&#9;c-5.232,3.387-10.452,6.184-16.371,8.165C220.44,1458.227,222.255,1464.682,226.93,1463.855z" transform="matrix(1, 0, 0, 1, 886.5843947905023, -572.5175981119481)"/><path fill="#231F20" d="M175.967,1486.307c5.941-1.459,11.74-2.621,17.385-5.1c3.727-1.639,0.797-6.7-2.627-6.07&#10;&#9;&#9;c-5.85,1.074-11.611,0.195-17.449,1.827C167.21,1478.655,169.897,1487.797,175.967,1486.307z" transform="matrix(1, 0, 0, 1, 886.5843947905023, -572.5175981119481)"/><path fill="#231F20" d="M167.282,1468.225c2.845,2.202,5.818,3.17,9.416,2.864c2.895-0.246,5.097-1.651,7.406-3.271&#10;&#9;&#9;c2.545-1.786,0.353-5.276-2.385-4.555c-2.558,0.671-6.029-1.105-7.948-2.684C168.753,1456.466,162.186,1464.274,167.282,1468.225z" transform="matrix(1, 0, 0, 1, 886.5843947905023, -572.5175981119481)"/><path fill="#231F20" d="M236.582,1688.908c1.058,2.391,4.791,1.012,4.265-1.483c-1.487-7.057-1.742-14.251-2.18-21.439&#10;&#9;&#9;c-0.333-5.402,1.352-11.618-3.755-14.967c-1.253-0.825-2.583-0.569-3.742,0.24c-5.393,3.764-2.69,12.175-1.758,17.697&#10;&#9;&#9;C230.59,1675.942,233.74,1682.463,236.582,1688.908z" transform="matrix(1, 0, 0, 1, 886.5843947905023, -572.5175981119481)"/><path fill="#231F20" d="M255.986,1689.604c2.243-4.218,5.305-7.582,8.521-11.072c3.125-3.39,8.288-6.014,10.367-10.122&#10;&#9;&#9;c1.764-3.483-1.065-7.163-4.883-6.388c-4.832,0.979-8.99,6.246-12.1,9.806c-3.833,4.395-6.316,9.652-8.092,15.181&#10;&#9;&#9;C248.627,1690.65,254.197,1692.972,255.986,1689.604z" transform="matrix(1, 0, 0, 1, 886.5843947905023, -572.5175981119481)"/><path fill="#231F20" d="M263.691,1709.438c4.842,0.075,9.649-0.233,14.469-0.693c5.242-0.5,11.665-0.576,16.352-3.112&#10;&#9;&#9;c3.295-1.786,2.158-6.603-1.471-6.993c-4.161-0.447-8.436,1.087-12.521,1.853c-5.418,1.015-10.887,1.748-16.393,1.972&#10;&#9;&#9;C259.709,1702.646,259.12,1709.368,263.691,1709.438z" transform="matrix(1, 0, 0, 1, 886.5843947905023, -572.5175981119481)"/><path fill="#231F20" d="M267.15,1723.166c-2.942-1.84-5.992,2.579-3.503,4.854c6.354,5.806,11.444,14.878,19.6,18.394&#10;&#9;&#9;c3.988,1.72,9.926-2.709,6.508-6.945C283.997,1732.329,274.802,1727.967,267.15,1723.166z" transform="matrix(1, 0, 0, 1, 886.5843947905023, -572.5175981119481)"/><path fill="#231F20" d="M235.299,1736.705c-4.048,6.526-8.2,14.216-8.357,22.047c-0.044,2.136,1.399,4.495,3.339,5.399&#10;&#9;&#9;c1.547,0.719,3.056,1.21,4.712,0.479c2.87-1.267,4.243-3.047,4.517-6.193c0.265-3.074,0.114-6.178,0.233-9.262&#10;&#9;&#9;c0.132-3.349,1.411-6.726,2.533-9.847C243.795,1735.092,237.416,1733.29,235.299,1736.705z" transform="matrix(1, 0, 0, 1, 886.5843947905023, -572.5175981119481)"/><path fill="#231F20" d="M215.595,1722.252c-4.523-0.507-9.006-0.677-13.425,0.63c-5.047,1.49-10.938,3.261-13.225,8.339&#10;&#9;&#9;c-0.277,0.614-0.372,1.216-0.375,1.802c-0.009,1.389,0.658,2.64,1.71,3.544c0.721,0.623,1.597,1.1,2.552,1.311&#10;&#9;&#9;c4.044,0.897,7.075-1.396,10.571-3.138c3.878-1.938,7.882-4.559,12.185-5.346C219.517,1728.675,219.798,1722.725,215.595,1722.252z&#10;&#9;&#9;" transform="matrix(1, 0, 0, 1, 886.5843947905023, -572.5175981119481)"/><path fill="#231F20" d="M206.227,1703.352c3.103,1.946,6.811-2.58,4.044-5.094c-6.029-5.479-10.697-12.254-15.681-18.664&#10;&#9;&#9;c-1.859-2.397-5.847-2.095-7.856-0.161c-2.356,2.265-2.02,5.469-0.161,7.859C191.944,1694.203,198.881,1698.74,206.227,1703.352z" transform="matrix(1, 0, 0, 1, 886.5843947905023, -572.5175981119481)"/><path fill="#231F20" d="M433.705,1890.741c-0.813-6.521-10.408-4.854-10.962,1.062c-0.81,8.612,3.355,18.198,7.421,25.592&#10;&#9;&#9;c2.549,4.631,9.025,0.923,7.098-3.793C434.193,1906.107,434.682,1898.598,433.705,1890.741z" transform="matrix(1, 0, 0, 1, 886.5843947905023, -572.5175981119481)"/><path fill="#231F20" d="M448.983,1916.15c2.63-2.574,5.683-4.902,8.546-7.217c1.83-1.48,3.878-2.826,5.626-4.423&#10;&#9;&#9;c1.323-1.216,2.482-2.577,3.207-4.281c1.137-2.671,0.022-5.95-2.558-6.983c-0.627-0.249-1.317-0.406-2.104-0.344&#10;&#9;&#9;c-4.952,0.378-8.2,3.799-11.265,7.406c-3.087,3.629-5.387,7.343-7.264,11.712C441.574,1915.725,446,1919.073,448.983,1916.15z" transform="matrix(1, 0, 0, 1, 886.5843947905023, -572.5175981119481)"/><path fill="#231F20" d="M477.904,1921.357c-4.978-1.021-10.342-0.12-15.666,1.105c-4.426,1.018-8.82,2.243-12.931,2.737&#10;&#9;&#9;c-3.572,0.432-2.656,5.576,0.517,5.957c3.584,0.429,7.736,1.36,11.951,1.969c5.459,0.784,11.016,1.002,15.6-1.138&#10;&#9;&#9;c0.718-0.337,1.417-0.708,2.085-1.168c3.254-2.243,3.894-8.165-0.85-9.324C478.376,1921.439,478.137,1921.404,477.904,1921.357z" transform="matrix(1, 0, 0, 1, 886.5843947905023, -572.5175981119481)"/><path fill="#231F20" d="M448.161,1937.457c-1.153-4.243-6.627-2.195-7.491,0.983c-2.022,7.472-3.729,17.42,0.662,24.303&#10;&#9;&#9;c3.774,5.906,11.454,0.885,11.321-4.716c-0.076-3.185-1.392-6.757-2.136-9.869C449.67,1944.596,449.125,1940.998,448.161,1937.457z&#10;&#9;&#9;" transform="matrix(1, 0, 0, 1, 886.5843947905023, -572.5175981119481)"/><path fill="#231F20" d="M422.96,1929.024c-1.392,0.907-3.03,1.711-4.753,1.496c-1.128-0.142-2.246-0.396-3.368-0.579&#10;&#9;&#9;c-2.23-0.365-3.625-0.076-5.651,0.904c-3.698,1.786-2.993,7.629,0.378,9.264c5.598,2.719,14.075-1.483,17.502-6.177&#10;&#9;&#9;C429.093,1931.15,426.217,1926.896,422.96,1929.024z" transform="matrix(1, 0, 0, 1, 886.5843947905023, -572.5175981119481)"/><path fill="#231F20" d="M419.287,1915.59c-4.284-2.073-6.171-5.248-8.247-9.451c-0.983-1.993-3.831-2.687-5.787-2.044&#10;&#9;&#9;c-2.681,0.889-3.941,3.708-3.197,6.345c1.924,6.845,7.869,11.037,14.566,12.553C420.976,1923.979,423.344,1917.552,419.287,1915.59&#10;&#9;&#9;z" transform="matrix(1, 0, 0, 1, 886.5843947905023, -572.5175981119481)"/><path fill="#231F20" d="M382.018,1732.437c-16.018-9.195-24.662-31.794-28.587-48.975c-0.599-2.631-4.177-2.668-5.399-0.573&#10;&#9;&#9;c-14.805,25.431-6.026,50.6,14.78,68.962c21.386,18.878,51.986,30.997,56.034,62.532c0.025,0.23,0.113,0.413,0.183,0.605&#10;&#9;&#9;c-0.769,7.572-0.101,15.252,0.989,22.892c0.334,2.337,3.081,3.919,4.946,1.893c20.432-22.201,18.346-56.935-0.009-79.662&#10;&#9;&#9;C413.403,1745.809,397.337,1741.234,382.018,1732.437z M425.014,1830.442c-0.526-8.389-0.088-16.654-0.233-25.176&#10;&#9;&#9;c-0.022-1.292-1.049-1.871-2.038-1.776c-3.607-20.649-21.877-35.363-38.34-47.558c-10.502-7.777-21.443-15.378-28.861-26.363&#10;&#9;&#9;c-7.336-10.861-6.716-22.869-4.315-34.814c3.084,8.776,6.225,17.436,10.666,25.783c6.956,13.063,17.111,19.254,30.424,25.047&#10;&#9;&#9;c19.178,8.348,30.909,19.055,37.133,39.474C434.074,1800.224,433.664,1817.218,425.014,1830.442z" transform="matrix(1, 0, 0, 1, 886.5843947905023, -572.5175981119481)"/><path fill="#231F20" d="M104.485,1402.92c-0.889,2.376-3.727,3.806-1.625,4.049c-1.651,3.594-2.445,7.768-2.174,12.311&#10;&#9;&#9;c0.142,2.46,2.602,3.83,4.804,3.704c14.04-0.794,29.337-7.903,42.252-12.871c7.268-2.794,26.864-8.606,26.452-19.026&#10;&#9;&#9;C173.031,1361.887,108.549,1392.081,104.485,1402.92z M164.81,1391.835c-8.386,6.72-21.005,10.153-30.925,13.826&#10;&#9;&#9;c-7.623,2.825-16.185,6.556-24.526,8.124c1.238-7.45,7.299-12.582,14.163-16.012c0.828-0.365,1.653-0.75,2.491-1.112&#10;&#9;&#9;c1.103-0.198,1.771,0.529,1.43-0.637c1.16-0.494,2.313-0.998,3.472-1.477c6.313-2.593,12.808-4.748,19.493-6.165&#10;&#9;&#9;C152.322,1387.977,169.377,1388.169,164.81,1391.835z" transform="matrix(1, 0, 0, 1, 886.5843947905023, -572.5175981119481)"/><path fill="#231F20" d="M368.381,1351.171c-1.55-0.514-3.522-1.639-4.029-2.076c-2.164-1.865-4.004-4.104-5.755-6.351&#10;&#9;&#9;c-3.547-4.567-6.42-10.922-13.18-11.069c-4.618-0.101-8.474,2.526-9.985,6.605c-5.16,6.165-2.621,16.176,2.558,22.057&#10;&#9;&#9;c6.407,7.277,16.985,10.582,26.385,10.858C375.895,1371.533,379.709,1354.941,368.381,1351.171z" transform="matrix(1, 0, 0, 1, 886.5843947905023, -572.5175981119481)"/><path fill="#231F20" d="M453.592,1536.027c-5.179-0.51-10.376-0.409-15.448,0.57c-13.016,2.521-12.676,21.097-2.372,23.314&#10;&#9;&#9;c1.062,0.347,2.183,0.419,3.229,0.163c0.466-0.044,0.945-0.116,1.439-0.22c10.95-2.331,21.843,0.664,32.04,4.69&#10;&#9;&#9;c12.393,4.892,20.573-10.2,11.756-19.077C476.445,1537.628,464.333,1535.08,453.592,1536.027z" transform="matrix(1, 0, 0, 1, 886.5843947905023, -572.5175981119481)"/><path fill="#231F20" d="M318.981,1786.477c5.39-0.958,8.253-1.899,13.287,0.784c4.631,2.467,8.575,6.253,12.67,9.479&#10;&#9;&#9;c10.906,8.594,23.84-4.688,14.969-15.385c-2.98-3.601-6.442-6.36-10.209-8.433c-11.611-8.578-25.979-15.14-38.677-5.517&#10;&#9;&#9;C301.656,1774.506,306.967,1788.615,318.981,1786.477z" transform="matrix(1, 0, 0, 1, 886.5843947905023, -572.5175981119481)"/><path fill="#231F20" d="M468.693,1730.367c-7.188-3.232-15.675-5.204-22.901-0.816c-9.312,5.654-11.882,17.782-9.879,27.879&#10;&#9;&#9;c2.747,13.825,25.154,12.178,24.785-2.212c-0.016-1.434-0.12-2.86-0.312-4.281c0.123,1.506,0.148,1.578,0.066,0.218&#10;&#9;&#9;c-0.025-0.658-0.006-1.316,0.035-1.972c0.035,0.003,0.205-0.971,0.387-1.667c0.006-0.006,0.01-0.013,0.013-0.021&#10;&#9;&#9;c0.107-0.066,0.202-0.13,0.315-0.199c0.441-0.166,1.21-0.469,1.638-0.582c0.094,0,0.161,0.003,0.287,0.003&#10;&#9;&#9;c0.926,0.013,1.849,0.113,2.769,0.211c3.749,0.4,7.384-2.532,8.436-5.991C475.797,1736.109,472.908,1732.257,468.693,1730.367z&#10;&#9;&#9; M461.133,1747.141c0.016-0.019,0.028-0.037,0.041-0.057c0.123-0.091,0.211-0.15,0.397-0.302&#10;&#9;&#9;C461.385,1746.934,461.274,1747.024,461.133,1747.141z" transform="matrix(1, 0, 0, 1, 886.5843947905023, -572.5175981119481)"/><path fill="#231F20" d="M288.993,1300.379c-14.456,2.525-28.2,7.572-42.369,11.198c-14.617,3.742-29.536,6.022-44.212,9.484&#10;&#9;&#9;c-31.926,7.535-65.516,0.208-97.87,5.535c-2.4,0.394-1.525,3.847,0.794,3.619c32.723-3.247,65.67,1.906,98.258-3.748&#10;&#9;&#9;c14.771-2.562,29.365-7.16,43.988-10.516c14.679-3.37,28.924-5.95,42.06-13.8C290.568,1301.598,290.07,1300.189,288.993,1300.379z" transform="matrix(1, 0, 0, 1, 886.5843947905023, -572.5175981119481)"/><path fill="#231F20" d="M303.345,1256.44c-29.435,4.404-59.159-1.802-88.215,5.208c-14.733,3.556-29.035,11.22-43.238,16.493&#10;&#9;&#9;c-15.653,5.818-32.298,10.128-49.06,10.483c-2.088,0.045-2.227,3.5-0.138,3.674c29.063,2.368,55.114-9.284,81.896-18.961&#10;&#9;&#9;c32.749-11.832,66.284-2.756,99.367-10.257C308.02,1262.161,307.691,1255.789,303.345,1256.44z" transform="matrix(1, 0, 0, 1, 886.5843947905023, -572.5175981119481)"/>


<path fill="#0C0C22" d="M1231.16,879.072c-1.115-44.807-16.286-86.917-42.161-124.454c-21.317-30.921-52.449-52.745-89.135-60.917&#10;&#9;&#9;c-24.41-5.431-49.375-3.799-73.904-7.245c-2.042-0.284-4.08-0.596-6.114-0.958c-1.002-0.18-1.931-0.391-2.835-0.624&#10;&#9;&#9;c-1.663-0.416-3.191-0.917-4.593-1.502c-2.753-1.15-5.078-2.618-7.258-4.388c-3.134-2.545-5.966-5.714-9.34-9.469&#10;&#9;&#9;c-2.687-2.983-5.541-5.739-8.527-8.297c-1.79-1.531-3.635-2.977-5.528-4.36c-12.408-9.084-26.814-15.022-42.073-18.462&#10;&#9;&#9;c-8.222-1.853-16.863-2.895-25.626-3.421c2.199-7.636,4.851-15.051,7.992-22.085c12.771-28.622,31.794-58.951,63.975-67.507&#10;&#9;&#9;c16.948-4.504,33.007-0.252,48.663,6.515c3.698,1.6,7.793,4.63,11.989,3.925c5.576-0.938,10.79-2.18,15.987-4.41&#10;&#9;&#9;c6.678-2.87,9.781-9.362,9.236-16.311c-0.06-0.734-0.158-1.452-0.274-2.164c2.712,0.368,5.897-2.485,5.008-5.711&#10;&#9;&#9;c-8.515-30.927-38.532-48.266-69.195-47.699c-38.646,0.706-74.963,24.363-99.524,52.72&#10;&#9;&#9;c-24.958,28.808-39.436,66.023-46.744,103.739c-17.395,1.175-34.95,3.106-52.232,5.796c-1.575,0.246-3.147,0.498-4.715,0.756&#10;&#9;&#9;c-4.146,0.681-8.275,1.393-12.374,2.161c-8.376,1.569-16.746,3.314-25.122,5.056c-2.832,0.589-5.667,1.175-8.502,1.754&#10;&#9;&#9;c-9.413,1.934-18.844,3.78-28.31,5.311c-3.516,0.57-7.038,1.109-10.565,1.575c-1.223,0.164-2.435,0.337-3.654,0.504&#10;&#9;&#9;c-21.352,2.92-42.161,6.691-62.227,14.969c-15.162,6.253-28.931,14.478-41.311,24.297c-1.083,0.86-2.148,1.751-3.213,2.636&#10;&#9;&#9;c-2.753,2.293-5.437,4.659-8.045,7.11c-1.434,1.345-2.838,2.715-4.224,4.104c-6.102,6.111-11.785,12.657-17.039,19.587&#10;&#9;&#9;c-4.451,5.869-8.6,12.008-12.437,18.39c-0.851,0.712-1.692,1.43-2.507,2.17c-1.935,4.105-3.768,8.234-5.491,12.39&#10;&#9;&#9;c-2.12,4.271-4.054,8.606-5.762,13.01c-4.671,12.027-7.869,24.501-9.797,37.196c-6.07,29.063-7.44,59.071-3.912,89.75&#10;&#9;&#9;c7.043,61.26,30.42,119.436,46.823,178.488c5.667,20.396,10.559,40.967,15.092,61.619c6.833,31.145,12.846,62.473,19.326,93.706&#10;&#9;&#9;c7.371,35.526,15.363,70.924,25.966,105.745c12.916,42.426,28.783,84.256,52.298,122.028c9.617,15.445,20.577,28.953,33.211,40.419&#10;&#9;&#9;c1.821,1.654,3.673,3.258,5.563,4.82c13.205,10.931,28.155,19.779,45.295,26.338c34.673,13.259,72.717,16.827,108.745,7.173&#10;&#9;&#9;c26.672-7.147,50.773-21.062,72.09-38.372c4.933-4.007,9.721-8.189,14.355-12.524c0.92-0.86,1.849-1.714,2.756-2.586&#10;&#9;&#9;c10.827-10.386,20.929-21.462,30.408-33.079c5.664-6.943,11.069-14.104,16.305-21.402c33.146-46.23,58.085-99.02,79.628-150.776&#10;&#9;&#9;c14.623-35.133,27.588-70.931,40.035-106.886c13.473-38.923,28.603-77.102,42.718-115.788&#10;&#9;&#9;c19.171-52.537,36.217-107.264,40.321-163.329c0.019-0.252,0.022-0.504,0.038-0.759&#10;&#9;&#9;C1231.188,892.529,1231.327,885.772,1231.16,879.072z M1003.171,696.801c0.514,0.246,1.037,0.457,1.556,0.687&#10;&#9;&#9;c-0.63,0.661-1.253,1.329-1.865,1.991c-1.389,1.506-2.794,3.065-4.189,4.675C1000.119,701.671,1001.615,699.217,1003.171,696.801z&#10;&#9;&#9; M982.463,679.526c1.424,1.471,2.826,2.98,4.177,4.567c2.835,3.333,5.897,6.073,9.132,8.367&#10;&#9;&#9;c-5.09,7.992-9.611,16.314-13.451,24.848c-4.567,10.168-8.587,21.792-11.255,33.794c-3.279-2.463-6.688-4.744-10.509-6.36&#10;&#9;&#9;c-0.92-0.388-1.855-0.744-2.782-1.112C965.956,722.468,975.731,701.161,982.463,679.526z M977.291,674.549&#10;&#9;&#9;c-2.804,9.186-6.203,18.208-9.841,27.066c-5.456,13.293-10.701,26.479-15.152,39.921c-11.98-4.363-24.315-7.765-35.933-12.972&#10;&#9;&#9;c-1.345-0.602-2.728-1.125-4.12-1.604c-0.328-1.235-0.671-2.463-0.977-3.702c-5.916-23.997-5.677-50.783-0.312-75.92&#10;&#9;&#9;C935.397,650.192,958.824,658.153,977.291,674.549z M847.708,811.962c-1.855,1.979,0.771,4.835,2.996,3.503&#10;&#9;&#9;c15.675-9.409,20.211-24.841,20.457-42.369c0.158-11.123-0.362-22.296-0.866-33.479c-0.205-4.646-0.406-9.293-0.558-13.942&#10;&#9;&#9;c-0.157-4.883-0.265-9.766-0.246-14.642c0.082-21.902,1.688-43.547,5.576-64.627c0.699-3.793,1.48-7.567,2.337-11.325&#10;&#9;&#9;c5.393-23.736,13.923-46.672,26.785-68.345c19.868-33.476,51.192-59.001,89.413-67.837c14.56-3.364,29.976-2.284,44.23,1.884&#10;&#9;&#9;c12.701,3.711,20.879,12.512,27.236,23.068c-1.824,0.123-3.516,1.194-3.998,3.383c-0.312,1.424-0.545,2.684-0.756,3.827&#10;&#9;&#9;c-26.036-24.183-62.079-32.313-94.443-12.906c-38.289,22.961-67.453,64.177-77.644,107.623c-0.384,1.641,1.896,2.085,2.47,0.599&#10;&#9;&#9;c14.919-38.759,33.404-77.795,69.856-100.766c14.289-9.009,33.183-12.915,49.879-11.901c18.869,1.146,34.61,10.446,48.688,22.082&#10;&#9;&#9;c-0.621,1.48-1.563,2.627-3.251,3.591c-27.377-18.447-60.195-21.336-90.112-5.292c-37.121,19.909-58.173,60.57-71.123,100.469&#10;&#9;&#9;c-1.25,3.856-2.422,7.699-3.528,11.523c-1.616,5.569-3.094,11.091-4.438,16.494c-0.161,0.649,0.834,0.888,1.011,0.246&#10;&#9;&#9;c1.493-5.522,3.118-11.113,4.889-16.721c1.216-3.849,2.508-7.711,3.878-11.561c13.252-37.348,33.854-73.807,68.326-93.86&#10;&#9;&#9;c25.78-15.001,56.131-13.489,81.023,0.851c-6.987-0.756-15.615-5.245-21.88-6.704c-14.56-3.39-31.148-2.419-45.355,2.07&#10;&#9;&#9;c-30.6,9.667-51.655,35.605-64.709,63.764c-5.034,10.858-8.814,22.243-11.627,33.904c-0.942,3.909-1.796,7.844-2.523,11.813&#10;&#9;&#9;c-3.705,20.104-4.797,40.797-4.47,60.897c0.088,5.557,0.394,11.063,0.888,16.513c0.605,6.603,1.541,13.104,2.867,19.471&#10;&#9;&#9;c4.722,22.652,14.424,43.521,32.266,60.542c7.819,7.453,17.178,12.377,27.082,16.412c2.816,1.146,5.311-2.498,3.928-4.898&#10;&#9;&#9;c-4.542-7.885-12.808-13.681-18.5-20.882c-5.421-6.858-9.926-14.182-13.86-21.988c-4.076-8.089-7.778-16.387-10.991-24.867&#10;&#9;&#9;c2.255,0.239,4.542,0.447,6.883,0.655c7.21,0.655,14.122,3.509,20.532,7.125c0.101,0.904,0.183,1.808,0.202,2.722&#10;&#9;&#9;c0.148,6.961-1.641,14.207-4.133,20.665c-0.636,1.641,1.645,3.03,2.479,1.354c2.586-5.188,6.2-13.445,7.264-21.216&#10;&#9;&#9;c0.019,0.013,0.041,0.025,0.066,0.038c1.376,0.904,2.734,1.821,4.048,2.744c2.8,1.966,5.783,3.547,8.858,4.939&#10;&#9;&#9;c0,0.523,0.17,1.04,0.46,1.474c-2.06,4.473-4.086,8.968-6.061,13.454c-2.214,5.037-4.126,10.229-3.295,15.76&#10;&#9;&#9;c0.148,1.001,1.836,1.197,2.205,0.252c1.821-4.675,3.717-9.079,6.011-13.419c0.132,0.145,0.274,0.283,0.428,0.41&#10;&#9;&#9;c-1.128,4.845-2.391,9.878-2.92,14.736c-0.057,0.564,0.718,0.964,1.16,0.649c0.96-0.68,1.761-1.5,2.473-2.391&#10;&#9;&#9;c0.589,0.066,1.213-0.117,1.704-0.621c1.547-1.584,2.92-3.513,4.143-5.639c0.104,0.12,0.205,0.233,0.321,0.34&#10;&#9;&#9;c-0.659,1.462-1.273,2.955-1.802,4.518c-0.214,0.636-0.221,1.229-0.079,1.767c-0.548,0.948-1.118,1.88-1.641,2.845&#10;&#9;&#9;c-1.71,3.156,2.996,6.898,5.242,3.849c0.041-0.05,0.082-0.104,0.12-0.157c0.955,0.346,2.256-0.435,2-1.758&#10;&#9;&#9;c-0.05-0.271-0.066-0.529-0.098-0.794c1.537-2.066,3.081-4.133,4.621-6.199c0.028-0.019,0.06-0.032,0.088-0.051&#10;&#9;&#9;c0.274-0.195,0.548-0.365,0.819-0.548c-1.943,2.684,1.899,7.145,4.854,4.927c0.762-0.567,1.502-1.141,2.252-1.714&#10;&#9;&#9;c-1.223,1.985-2.385,4.02-3.409,6.168c-0.873,1.827,1.575,3.9,2.999,2.202c4.797-5.711,9.958-9.514,15.848-12.717&#10;&#9;&#9;c-1.959,2.167-3.642,4.631-5.106,7.119c-0.671,1.144,1.024,1.976,1.758,0.961c2.363-3.267,5.39-5.39,8.748-7.538&#10;&#9;&#9;c2.829-1.808,6.202-2.363,9.003-4.08c1.773-1.086,1.058-3.446-0.715-3.871c0.06-0.063,0.107-0.145,0.164-0.214&#10;&#9;&#9;c5.402,3.301,9.746,7.623,11.892,13.867c-0.11,0.082-0.211,0.17-0.321,0.252c-0.655,0.038-1.292,0.34-1.578,0.951&#10;&#9;&#9;c-0.066,0.139-0.117,0.281-0.183,0.419c-7.702,6.411-12.064,15.388-9.982,27.542c-2.662,4.983-6.521,9.428-13.057,13.029&#10;&#9;&#9;c-1.405,0.775-2.003,2.4-1.855,3.922c-5.072,1.868-10.376,3.273-15.53,4.753c-0.781,0.224-1.38,0.618-1.833,1.103&#10;&#9;&#9;c-0.359,0.047-0.718,0.085-1.081,0.126c-0.463-0.548-1.105-0.964-1.931-1.146c-4.042-0.888-7.453-3.478-11.501-4.341&#10;&#9;&#9;c-2.599-0.555-4.649,1.657-4.511,3.9c-6.845-1.434-13.788-2.306-20.747-3.576c-3.828-0.699-5.554,4.099-2.388,6.187&#10;&#9;&#9;c1.27,0.841,2.542,1.65,3.814,2.441c-0.806,1.48-0.444,3.682,1.682,4.262c1.412,0.457,2.829,0.873,4.253,1.269&#10;&#9;&#9;c4.098,1.32,8.115,2.867,12.146,4.375c-10.893,5.837-22.028,11.93-34.021,12.686c-1.786-3.232-4.933-5.034-8.077-7.043&#10;&#9;&#9;c-4.53-2.898-7.377-6.316-9.535-11.258c-1.446-3.308-6.584-1.43-6.48,1.833c0.041,1.267,0.132,2.615,0.255,3.995&#10;&#9;&#9;c-1.301-2.526-2.53-5.11-4.111-7.416c-1.531-2.23-4.978-0.243-3.635,2.148c3.169,5.632,4.259,11.933,8.247,16.787&#10;&#9;&#9;c0.268,0.457,0.555,0.898,0.844,1.333c-10.067-0.142-20.116-0.734-30.045-1.969c0.52-1.008,0.416-2.214-0.492-3.185&#10;&#9;&#9;c-0.658-0.706-1.376-0.933-2.192-1.38c-1.118-0.604-1.808-2.57-2.252-3.642c-1.455-3.515-2.265-7.579-2.599-11.34&#10;&#9;&#9;c-0.202-2.236-3.323-2.167-3.471,0.063c-0.34,5.286-0.574,10.61,1.417,15.628c0.334,0.841,0.869,1.799,1.537,2.693&#10;&#9;&#9;c-10.43-1.686-20.696-4.168-30.694-7.617c5.16-4.75,10.95-7.815,13.611-14.717c0.97-2.514-2.614-3.894-4.256-2.344&#10;&#9;&#9;c-1.253,1.182-2.624,2.23-4.035,3.232c1.068-3.226,1.66-6.701,2.64-10.304c0.488-1.792-2.142-2.347-2.744-0.668&#10;&#9;&#9;c-2.173,6.058-3.223,12.796-9.016,16.554c-1.745,1.134-1.329,3.106-0.069,3.988c-0.258,0.221-0.529,0.432-0.781,0.668&#10;&#9;&#9;c-0.529,0.491-0.791,1.04-0.863,1.584c-4.833-1.868-9.592-3.998-14.276-6.382c7.182-1.137,14.402-5.692,19.594-11.501&#10;&#9;&#9;c1.821-2.035,0.58-5.777-2.429-5.585c-2.738,0.173-5.469,0.066-8.2,0.05c-0.545-1.654-2.155-2.996-4.108-2.328&#10;&#9;&#9;c-3.156,1.071-6.653,2.766-10.2,4.303c-3.991,1.008-7.935,2.196-11.895,3.333c-1.732-1.733-3.333-3.591-4.709-5.623&#10;&#9;&#9;c-4.709-6.952-3.727-11.841-1.657-19.367c6.876,0.897,13.769,1.156,20.759-0.356c2.199-0.473,1.647-3.969-0.563-3.859&#10;&#9;&#9;c-0.791,0.038-1.569,0.016-2.35,0.028c2.003-1.749,1.207-5.976-2.255-6.029c-4.423-0.076-8.789-0.435-13.13-0.958&#10;&#9;&#9;c-1.064-0.129-2.129-0.268-3.194-0.413c-2.539-0.35-5.071-0.747-7.604-1.168c-2.01-0.334-4.02-0.674-6.029-1.024&#10;&#9;&#9;c-0.271-0.129-0.548-0.249-0.819-0.381c-2.016-1.008-3.894-2.224-5.497-3.654c-1.896-1.688-3.371-3.689-4.174-6.048&#10;&#9;&#9;c-0.677-1.991-0.895-4.224-0.425-6.757c2.722-14.714,17.527-17.171,29.771-13.309c0.756,0.239,1.458,0.157,2.073-0.113&#10;&#9;&#9;c0.29-0.129,0.567-0.296,0.81-0.507c2.926,0.378,5.865,0.708,8.801,1.024c4.243,0.454,8.48,0.888,12.673,1.452&#10;&#9;&#9;c8.206,1.103,15.549,0.365,21.88-5.229c0.797-0.706-0.079-1.987-1.027-1.72c-4.886,1.396-9.469,2.624-14.585,2.999&#10;&#9;&#9;c-5.976,0.438-10.868-2.75-16.267-4.577c-1.606-0.542-3.358-0.989-5.169-1.317c6.514-2.558,12.594-5.979,18.642-9.784&#10;&#9;&#9;c2.016-1.272,4.029-2.577,6.051-3.906c3.295-2.167,6.618-4.391,10.04-6.593c4.378-2.819,8.912-5.188,13.596-7.122&#10;&#9;&#9;c0.148,0.879,0.258,1.773,0.422,2.649C862.825,769.947,865.534,792.898,847.708,811.962z M980.286,772.256&#10;&#9;&#9;c0.92,0.309,1.821,0.643,2.734,0.958c-0.205,0.072-0.407,0.142-0.599,0.243c-0.444-0.158-0.933-0.23-1.474-0.164&#10;&#9;&#9;c-0.227,0.028-0.441,0.082-0.662,0.12C980.365,773.027,980.365,772.637,980.286,772.256z M987.115,774.646&#10;&#9;&#9;c0.132,0.05,0.268,0.095,0.397,0.145c-0.098,0.038-0.195,0.076-0.293,0.117C987.185,774.823,987.156,774.729,987.115,774.646z&#10;&#9;&#9; M997.076,779.447c0.488-0.321,0.979-0.636,1.468-0.964c0.498,0.164,0.999,0.324,1.497,0.488&#10;&#9;&#9;C999.051,779.132,998.062,779.29,997.076,779.447z M970.596,862.521c-0.006,0.019-0.016,0.032-0.025,0.047&#10;&#9;&#9;c-0.073,0.035-0.145,0.073-0.214,0.11c0.016-0.069,0.022-0.135,0.032-0.205C970.458,862.49,970.527,862.506,970.596,862.521z&#10;&#9;&#9; M920.456,878.688c-0.954,0.016-1.906,0.025-2.857,0.038c-0.142-0.368-0.331-0.724-0.592-1.049c-0.599-0.75-1.068-1.71-1.478-2.763&#10;&#9;&#9;c0.218,0.17,0.419,0.347,0.646,0.51C917.562,876.442,918.988,877.582,920.456,878.688z M634.736,730.759&#10;&#9;&#9;c1.216-9.485,1.959-19.011,2.173-28.562c21.934-11.747,46.095-19.915,69.132-24.782c10.676-2.255,21.389-4.334,32.112-6.398&#10;&#9;&#9;c3.352,2.085,6.65,4.25,9.875,6.499c11.114,7.743,21.279,16.894,31.025,26.265c8.628,8.292,16.352,19.408,26.559,25.673&#10;&#9;&#9;c2.791,1.71,5.248-1.713,4.073-4.218c-5.478-11.662-17.776-21.541-26.974-30.351c-9.529-9.117-19.745-17.414-30.515-25.018&#10;&#9;&#9;c-0.595-0.422-1.2-0.813-1.798-1.226c7.229-1.398,14.453-2.832,21.663-4.319c4.322,4.291,8.489,8.726,12.449,13.344&#10;&#9;&#9;c17.644,20.567,25.654,44.322,37.316,68.174c0.652,1.333,2.807,0.649,2.728-0.775c-1.307-24.457-15.574-49.399-30.685-67.973&#10;&#9;&#9;c-4.18-5.135-8.587-9.967-13.174-14.569c9.895-2.114,19.783-4.303,29.693-6.391c3.793,9.614,6.571,19.354,9.224,29.787&#10;&#9;&#9;c0.362,1.417,2.356,0.996,2.422-0.356c0.498-10.553-2.265-20.684-6.511-30.505c12.537-2.586,25.122-4.93,37.808-6.606&#10;&#9;&#9;c1.921-0.255,3.862-0.485,5.809-0.706c-1.216,7.844-2.17,15.672-2.823,23.415c-1.606,19.03-2.132,39.001-0.208,58.349&#10;&#9;&#9;c-4.678,1.884-9.129,4.259-13.467,6.88c-5.544,2.539-10.871,6.244-15.357,9.104c-3.619,2.309-7.358,4.87-10.852,7.721&#10;&#9;&#9;c-0.135,0.079-0.274,0.161-0.413,0.236c-5.437,3.075-11.063,5.651-17.102,7.214c-0.602-0.668-1.238-1.311-1.855-1.966&#10;&#9;&#9;c-13.552-14.32-31.391-25.969-47.91-32.553c-27.396-10.912-57.077-13.227-86.303-12.326c-1.216,0.038-1.654,1.219-1.345,2.098&#10;&#9;&#9;c-0.029,6.13,0.287,12.257,0.687,18.375c-2.57-0.391-5.15-0.756-7.737-1.084c0.447-7.469,0.835-14.994,0.803-22.473&#10;&#9;&#9;c-0.006-1.991-3.033-1.925-3.074,0.05c-0.132,6.849-0.722,13.703-1.21,20.526c-0.038,0.491-0.069,0.977-0.101,1.465&#10;&#9;&#9;c-3.068-0.347-6.136-0.633-9.201-0.867c0.104-1.587,0.198-2.822,0.236-3.279c0.734-8.231,1.818-16.487,1.818-24.763&#10;&#9;&#9;c0-1.877-2.845-1.808-2.895,0.05c-0.261,9.299-1.777,18.504-2.747,27.752c-1.146-0.069-2.299-0.139-3.446-0.189&#10;&#9;&#9;C634.67,731.245,634.705,730.999,634.736,730.759z M625.226,708.936c2.734-1.704,5.506-3.358,8.335-4.936&#10;&#9;&#9;c-0.384,7.412-1.109,14.777-2.051,22.161c-0.211,1.651-0.545,3.409-0.901,5.204c-2.117-0.044-4.23-0.063-6.332-0.038&#10;&#9;&#9;C624.697,723.87,625.056,716.401,625.226,708.936z M616.462,728.844c0.51-5.002,0.999-10.036,1.376-15.077&#10;&#9;&#9;c1.427-0.982,2.873-1.934,4.332-2.882c-0.309,5.903-0.718,11.8-1.137,17.701c-0.063,0.882-0.173,1.846-0.299,2.848&#10;&#9;&#9;c-1.515,0.057-3.024,0.132-4.523,0.233C616.286,730.722,616.368,729.78,616.462,728.844z M609.882,721.46&#10;&#9;&#9;c0.129-0.718,0.249-1.443,0.372-2.167c1.323-1.018,2.656-2.022,4.01-3.005c-0.438,4.212-0.914,8.417-1.354,12.62&#10;&#9;&#9;c-0.104,0.995-0.249,2.019-0.403,3.056c-1.112,0.101-2.227,0.198-3.33,0.328c-0.362,0.044-0.709,0.11-1.068,0.157&#10;&#9;&#9;C608.757,728.699,609.242,724.925,609.882,721.46z M597.912,729.783c2.662-2.507,5.39-4.955,8.237-7.289&#10;&#9;&#9;c-0.753,3.446-1.805,7.05-2.652,10.666c-2.23,0.41-4.388,0.907-6.499,1.468C597.322,733.021,597.625,731.402,597.912,729.783z&#10;&#9;&#9; M707.5,1455.159c-23.83-39.105-39.228-83.408-52.197-127.104c-18.907-63.688-30.301-129.211-45.847-193.671&#10;&#9;&#9;c-3.314-25.412-6.735-50.809-9.702-76.258c-7.145-61.279-6.798-135.35,26.719-190.275c0.476-0.781,0.986-1.55,1.477-2.331&#10;&#9;&#9;c1.962-3.093,4-6.14,6.184-9.101c0.391-0.526,0.81-1.036,1.204-1.556c3.894-5.141,8.108-10.083,12.726-14.765&#10;&#9;&#9;c1.531-1.55-0.85-3.818-2.419-2.334c-4.558,4.319-8.783,8.877-12.739,13.611c-5.365-7.856-10.225-15.93-15.174-24.262&#10;&#9;&#9;c-0.482-0.813-1.742-0.063-1.26,0.75c4.788,8.045,9.205,17.338,15.001,25.201c-2.174,2.671-4.228,5.418-6.222,8.209&#10;&#9;&#9;c-6.697-10.37-13.741-20.479-18.853-31.936c-0.454-1.008-1.918-0.12-1.478,0.876c5.046,11.384,11.41,22.863,18.617,33.454&#10;&#9;&#9;c-1.717,2.495-3.358,5.04-4.943,7.617c-2.473-3.377-5.194-6.54-7.415-10.14c-2.665-4.319-4.911-8.896-7.192-13.422&#10;&#9;&#9;c-0.419-0.826-1.641-0.088-1.235,0.73c3.928,7.913,8.096,18.151,15.064,24.127c-30.149,50.001-35.426,114.43-28.883,171.324&#10;&#9;&#9;c1.008,8.776,2.076,17.54,3.163,26.304c-15.287-50.773-32.943-101.247-41.436-153.662c-1.584-9.784-2.567-19.48-3.094-29.107&#10;&#9;&#9;c0.073-0.208,0.11-0.438,0.082-0.699c-0.104-1.015-0.192-2.022-0.287-3.037c-1.604-39.537,5.579-77.726,20.387-114.459&#10;&#9;&#9;c2.873-5.28,6.061-10.437,9.57-15.467c3.814-2.555,7.894-4.785,12.219-6.669c1.619-0.706,3.27-1.367,4.958-1.972&#10;&#9;&#9;c2.486-0.882,5.059-1.65,7.711-2.299c1.169-0.29,2.356-0.548,3.56-0.788c1.79-0.359,3.61-0.668,5.475-0.92&#10;&#9;&#9;c0.378-0.05,0.747-0.12,1.131-0.164c0.999-0.12,2.01-0.227,3.018-0.34c1.43-0.151,2.87-0.296,4.315-0.428&#10;&#9;&#9;c1.509-0.139,3.024-0.265,4.552-0.378c1.625-0.12,3.26-0.227,4.905-0.321c0.895-0.047,1.789-0.088,2.684-0.129&#10;&#9;&#9;c0.583-0.025,1.168-0.054,1.754-0.073c0.158-0.006,0.318-0.019,0.479-0.022c1.131-0.041,2.265-0.069,3.396-0.094&#10;&#9;&#9;c1.282-0.028,2.567-0.047,3.856-0.06c3.018-0.022,6.051,0.01,9.094,0.098c1.323,0.038,2.652,0.085,3.979,0.148&#10;&#9;&#9;c2.696,0.12,5.396,0.281,8.093,0.498c1.197,0.094,2.391,0.208,3.584,0.321c1.364,0.132,2.728,0.28,4.089,0.438&#10;&#9;&#9;c1.222,0.142,2.445,0.293,3.67,0.454c2.668,0.356,5.33,0.752,7.979,1.212c1.109,0.192,2.217,0.391,3.32,0.605&#10;&#9;&#9;c2.766,0.526,5.513,1.122,8.247,1.771c1.03,0.246,2.054,0.498,3.075,0.762c2.079,0.532,4.142,1.103,6.187,1.713&#10;&#9;&#9;c0.958,0.284,1.909,0.58,2.86,0.882c2.873,0.914,5.708,1.906,8.502,2.98c1.024,0.391,2.044,0.781,3.049,1.197&#10;&#9;&#9;c12.654,5.191,24.341,12.122,34.346,21.119c0.851,0.769,2.353-0.287,1.638-1.295c-10.918-15.47-29.34-23.49-47.589-28.631&#10;&#9;&#9;c-0.016-1.729-0.038-3.458-0.06-5.185c-0.019-1.713-2.624-1.657-2.646,0.044c-0.016,1.461-0.032,2.917-0.047,4.378&#10;&#9;&#9;c-2.111-0.564-4.206-1.09-6.291-1.587c-0.025-2.47-0.054-4.946-0.079-7.416c-0.022-1.827-2.807-1.771-2.826,0.05&#10;&#9;&#9;c-0.025,2.221-0.05,4.442-0.076,6.666c-0.958-0.22-1.921-0.444-2.873-0.655c-1.812-0.4-3.642-0.793-5.488-1.184&#10;&#9;&#9;c-0.063-3.913-0.12-7.831-0.183-11.744c-0.028-1.827-2.797-1.767-2.826,0.05c-0.06,3.679-0.116,7.355-0.173,11.032&#10;&#9;&#9;c-2.706-0.555-5.44-1.083-8.199-1.597c-0.088-5.453-0.177-10.899-0.262-16.352c-0.031-1.802-2.763-1.745-2.791,0.05&#10;&#9;&#9;c-0.085,5.232-0.167,10.465-0.252,15.697c-1.606-0.283-3.219-0.561-4.838-0.822c-0.577-5.979-1.056-11.977-1.241-17.984&#10;&#9;&#9;c28.055-0.646,56.298,2.318,81.663,15.161c11.662,5.91,22.473,13.322,32.449,21.761c2.029,1.72,3.95,3.547,5.834,5.412&#10;&#9;&#9;c1.049,1.04,2.098,2.085,3.115,3.156c1.181,1.238,2.35,2.489,3.506,3.755c-2.652-0.11-4.748,0.681-6.499,2.083&#10;&#9;&#9;c-1.017-0.063-2.032-0.104-3.043-0.098c-2.51,0.019-4.983,0.271-7.374,0.762c-8.748,1.805-16.292,6.974-19.934,17.07&#10;&#9;&#9;c-0.117,0.318-0.205,0.633-0.309,0.948c-3.226-4.876-8.077-8.984-12.786-10.663c-1.049-0.372-1.736,1.402-0.706,1.817&#10;&#9;&#9;c6.464,2.618,9.491,7.85,12.313,13.41c-0.28,1.524-0.444,3.018-0.491,4.476c-1.336-0.085-2.675-0.135-4.013-0.154&#10;&#9;&#9;c0.079-0.135,0.129-0.29,0.079-0.438c-0.797-2.498-3.292-4.479-4.694-6.741c-1.798-2.911-3.002-6.155-4.117-9.378&#10;&#9;&#9;c-0.387-1.128-2.17-0.64-1.789,0.504c1.137,3.418,2.422,6.744,4.196,9.888c1.166,2.06,2.876,4.986,5.106,6.146&#10;&#9;&#9;c-4.666,0.003-9.365,0.422-14.094,1.307c-2.529-3.673-5.506-7.06-7.799-10.943c-3.427-5.799-5.954-12.131-8.524-18.34&#10;&#9;&#9;c-0.441-1.068-2.183-0.611-1.758,0.491c3.579,9.236,7.51,21.956,15.089,29.397c-1.336,0.305-2.678,0.649-4.017,1.04&#10;&#9;&#9;c-2.722,0.787-5.343,1.776-7.888,2.907c-6.178-8.256-12.969-15.445-17.801-24.744c-0.366-0.699-1.402-0.075-1.046,0.621&#10;&#9;&#9;c4.322,8.509,10.219,18.432,17.804,24.596c-14.09,6.574-25.44,18.104-34.166,30.887c-28.285,41.443-31.668,95.946-36.365,144.211&#10;&#9;&#9;c-6.445,66.222-8.896,132.953,3.831,198.607c6.445,33.246,20.085,64.121,28.149,96.866c7.97,32.348,12.799,67.156,15.983,100.321&#10;&#9;&#9;c1.437,14.969,2.571,30.37,7.082,44.788c3.869,12.352,9.11,24.337,14.239,36.207c3.244,7.513,8.136,17.849,11.841,28.77&#10;&#9;&#9;C720.183,1474.343,713.596,1465.157,707.5,1455.159z M1051.191,1371.713c2.986-8.203,5.9-16.425,8.663-24.703&#10;&#9;&#9;c2.655-4.523,5.409-9.031,8.36-13.526c2.47-3.768,4.968-7.517,7.469-11.265C1068.048,1338.98,1059.937,1355.534,1051.191,1371.713z&#10;&#9;&#9; M1146.551,1135.354c-1.326,3.727-2.659,7.447-3.935,11.189c-11.479,33.74-23.081,67.428-35.835,100.712&#10;&#9;&#9;c-7.689,20.066-15.779,40.186-24.463,60.091c-5.576,8.234-11.274,16.391-16.853,24.634c-0.492,0.728-0.989,1.472-1.49,2.205&#10;&#9;&#9;c2.545-8.25,4.892-16.569,6.93-24.996c1.147-4.737,2.158-9.5,3.078-14.276c2.577-4.183,5.191-8.335,7.762-12.496&#10;&#9;&#9;c12.685-20.532,24.574-41.442,28.322-65.626c0.18-1.149-1.572-1.597-1.767-0.432c-4.262,25.268-19.036,47.063-32.49,68.373&#10;&#9;&#9;c1.118-6.886,2.016-13.804,2.76-20.74c16.626-31.573,28.562-65.692,45.037-97.392c0.466-0.901-0.901-1.65-1.383-0.753&#10;&#9;&#9;c-5.434,10.121-10.751,20.403-15.939,30.789c4.171-10.612,7.787-21.442,10.704-32.475c0.321-1.209-1.512-1.638-1.877-0.456&#10;&#9;&#9;c-7.188,23.408-17.288,45.843-28.644,67.5c-1.906,3.632-3.94,7.153-6.026,10.635c0.365-5.837,0.633-11.687,0.832-17.54&#10;&#9;&#9;c0.347-0.722,0.665-1.449,1.018-2.17c10.279-21.012,21.628-41.509,32.304-62.322c0.554-1.083-1.074-1.978-1.664-0.907&#10;&#9;&#9;c-10.524,19.097-21.474,37.912-31.425,57.311c0.057-2.376,0.107-4.754,0.145-7.129c5.528-12.153,10.641-24.556,15.817-36.636&#10;&#9;&#9;c9.179-21.414,17.363-43.194,24.151-65.49c0.384-1.267-1.568-1.714-1.981-0.482c-7.828,23.223-17.133,45.903-26.782,68.417&#10;&#9;&#9;c-3.531,8.24-7.349,16.463-11.104,24.726c0.047-7.709,0.029-15.407-0.025-23.088c-0.003-0.224-0.013-0.443-0.013-0.667&#10;&#9;&#9;c8.751-26.43,18.246-53.212,24.177-80.277c0.365-1.663-2.136-2.281-2.571-0.624c-5.724,21.78-15.234,42.992-21.884,64.713&#10;&#9;&#9;c-0.12-4.621-0.296-9.239-0.482-13.857c5.248-5.954,8.26-18.17,10.531-23.84c5.138-12.834,10.153-26.386,12.011-40.148&#10;&#9;&#9;c0.208-1.527-2.113-2.139-2.359-0.576c-2.129,13.504-7.447,26.552-12.5,39.175c-2.265,5.657-5.358,11.221-8.045,16.865&#10;&#9;&#9;c-0.227-4.757-0.479-9.507-0.775-14.257c4.719-13.502,8.612-27.636,12.097-41.241c0.346-1.342-1.729-1.847-2.083-0.508&#10;&#9;&#9;c-2.819,10.632-7.179,21.235-10.682,31.952c-0.608-8.694-1.289-17.38-2.073-26.058c4-7.892,8.121-15.723,12.307-23.513&#10;&#9;&#9;c0.558-1.036-1.03-1.909-1.6-0.876c-3.594,6.546-7.368,13.205-11.12,19.959c-0.179-1.946-0.378-3.894-0.57-5.84&#10;&#9;&#9;c4.728-11.989,9.214-24.212,13.325-36.365c0.356-1.052-1.307-1.442-1.667-0.406c-3.547,10.185-8.578,20.277-12.257,30.635&#10;&#9;&#9;c-1.335-13.215-2.822-26.417-4.436-39.6c-0.12-0.999-1.688-0.986-1.572,0.028c1.764,15.133,3.09,30.291,4.102,45.462&#10;&#9;&#9;c0.126,1.858,0.274,3.718,0.387,5.576c0.101,1.632,0.17,3.27,0.268,4.907c0.091,1.701,0.18,3.402,0.265,5.106&#10;&#9;&#9;c0.567,10.991,0.967,21.984,1.219,32.991c-0.677,2.904-1.244,5.821-1.622,8.751c-0.104,0.787,1.071,1.427,1.421,0.552&#10;&#9;&#9;c0.135-0.338,0.258-0.681,0.394-1.018c0.183,11.409,0.217,22.828,0.129,34.254c-0.038,4.901-0.113,9.813-0.208,14.729&#10;&#9;&#9;c-0.095,0.542-0.211,1.084-0.299,1.632c-0.079,0.498,0.028,0.914,0.243,1.238c-0.227,10.127-0.602,20.286-1.178,30.439&#10;&#9;&#9;c-0.17,3.04-0.359,6.079-0.567,9.116c-0.167,2.388-0.34,4.77-0.529,7.157c-0.337,4.233-0.712,8.464-1.131,12.688&#10;&#9;&#9;c-0.391,3.932-0.819,7.862-1.292,11.784c-0.425,3.506-0.888,7.003-1.383,10.496c-1.871,13.266-4.256,26.43-7.311,39.421&#10;&#9;&#9;c-0.044,0.198-0.088,0.396-0.136,0.599c-1.795,7.598-3.862,15.107-6.108,22.566c-3.872,12.865-8.291,25.561-12.906,38.198&#10;&#9;&#9;c-3.919,10.727-7.964,21.415-11.926,32.131c-1.708,4.625-3.399,9.259-5.059,13.898c-10.786,16.626-22.46,32.636-35.199,47.825&#10;&#9;&#9;c6.971-17.272,14.232-34.425,21.786-51.46c11.725-26.43,19.584-53.382,22.605-82.24c3.238-30.937,2.964-62.069,3.764-93.136&#10;&#9;&#9;c0.032-1.275-1.906-1.222-1.965,0.032c-1.534,30.918-3.125,61.802-7.97,92.414c-4.867,30.758-14.9,58.289-27.743,86.505&#10;&#9;&#9;c-9.948,21.858-19.008,44.123-27.588,66.556c-20.114,20.009-43.623,36.956-69.929,47.33c-35.24,13.901-73.633,12.329-109.188,0.542&#10;&#9;&#9;c-23.314-7.73-42.287-19.858-58.331-35.748c-4.24-19.839-15.322-40.797-21.301-53.964c-4.19-9.233-8.468-18.444-11.665-28.077&#10;&#9;&#9;c-4.794-14.446-5.913-30.606-7.73-45.645c-3.805-31.517-5.623-62.397-13.151-93.441c-7.963-32.83-21.308-63.626-27.932-96.929&#10;&#9;&#9;c-6.82-34.279-9.258-69.406-9.378-104.303c-0.217-61.647,7.403-125.346,24.089-184.788c6.984-24.889,18.11-50.052,37.764-67.513&#10;&#9;&#9;c13.013-11.561,29.006-15.883,45.358-15.703c2.485,12.272,13.372,21.216,26.225,25.125c1.521,29.192,32.619,43.894,58.229,51.41&#10;&#9;&#9;c35.388,10.386,74.686,11.397,111.224,8.713c10.981-0.806,20.763-4.549,30.052-9.494c7.031,10.931,13.873,21.802,19.455,33.797&#10;&#9;&#9;c8.162,17.555,13.753,36.232,17.993,55.083c8.209,36.503,11.252,75.148,11.898,112.505c0.031,1.875,2.87,1.814,2.895-0.05&#10;&#9;&#9;c0.554-38.648,0.655-76.557-6.984-114.651c-6.234-31.094-17.738-65.034-36.992-91.435c6.281-3.824,12.43-7.97,18.68-11.879&#10;&#9;&#9;c15.744-9.847,30.619-20.703,35.523-38.085c3.103-2.18,6.345-4.139,9.536-5.878c15.479-8.423,33.624-8.083,50.127-3.333&#10;&#9;&#9;c33.602,9.671,60.652,38.885,77.281,68.452c21.024,37.357,14.812,79.546,5.191,119.385&#10;&#9;&#9;c-10.773,44.622-29.636,86.902-38.422,132.053C1144.208,1135.175,1145.669,1135.868,1146.551,1135.354z M1079.401,1255.565&#10;&#9;&#9;c0.154-1.704,0.306-3.408,0.441-5.115c2.722-4.813,5.324-9.624,7.834-14.289C1084.834,1242.606,1082.05,1249.076,1079.401,1255.565&#10;&#9;&#9;z M1192.114,1009.701c-12.761,41.6-29.793,81.577-44.445,122.463c19.146-83.994,79.745-176.859,32.591-261.307&#10;&#9;&#9;c-14.497-25.963-38.135-48.99-65.828-61.128c-0.621-0.274-1.241-0.535-1.862-0.797c-4.936-2.06-9.983-3.818-15.139-5.141&#10;&#9;&#9;c-1.959-0.5-3.944-0.919-5.948-1.26c-1.049-0.18-2.117-0.284-3.175-0.422c-7.236-0.919-14.638-0.825-21.839,0.397&#10;&#9;&#9;c-0.488,0.082-0.97,0.189-1.458,0.284c-3.374,0.643-6.688,1.509-9.91,2.652c-1.011,0.359-2.01,0.753-2.999,1.163&#10;&#9;&#9;c-0.495,0.205-1.008,0.362-1.497,0.58c-2.86,1.27-5.557,2.744-8.187,4.309c-4.438,2.643-8.603,5.689-12.584,9.098&#10;&#9;&#9;c0.684-2.586,1.168-5.226,1.408-7.904c2.614-3.597,5.878-6.735,10.364-9.353c0.873-0.51,1.776-1.005,2.747-1.478&#10;&#9;&#9;c1.827-0.882,3.727-1.628,5.667-2.268c1.19-0.391,2.4-0.73,3.625-1.04c2.593-0.649,5.251-1.121,7.945-1.436&#10;&#9;&#9;c1.062-0.123,2.129-0.227,3.2-0.303c3.386-0.252,6.808-0.296,10.194-0.176c1.03,0.035,2.057,0.088,3.081,0.151&#10;&#9;&#9;c2.797,0.176,5.563,0.441,8.25,0.769c0.781,0.094,1.556,0.195,2.321,0.299c0.586,0.079,1.182,0.167,1.78,0.258&#10;&#9;&#9;c3.484,0.52,7.195,1.2,11.041,2.063c0.101,0.142,0.177,0.303,0.287,0.441c0.356,0.441,0.86,0.252,1.156-0.104&#10;&#9;&#9;c2.457,0.576,4.958,1.225,7.481,1.95c1.531,0.441,3.071,0.907,4.609,1.405c6.262,2.02,12.537,4.521,18.425,7.542&#10;&#9;&#9;c1.081,0.554,2.148,1.122,3.197,1.714c12.241,6.867,22.366,16.166,26.417,28.404c0.457,1.376,2.577,0.791,2.167-0.608&#10;&#9;&#9;c-4.542-15.492-15.741-27.135-29.52-35.533c-0.277-4.423-0.287-8.953-0.602-12.827c-0.914-11.221-1.538-22.495-1.682-33.756&#10;&#9;&#9;c-0.022-1.708-2.643-1.657-2.646,0.05c-0.029,12.172,0.548,24.354,1.357,36.5c0.145,2.133,0.098,5.05,0.233,8.093&#10;&#9;&#9;c-1.61-0.895-3.248-1.755-4.915-2.571c-3.311-15.133-2.939-31.721-5.56-46.974c-0.246-1.437-2.731-1.071-2.526,0.372&#10;&#9;&#9;c1.524,10.575,2.24,21.263,3.333,31.889c0.325,3.156,0.183,8.616,1.204,13.057c-3.364-1.502-6.798-2.854-10.27-4.051&#10;&#9;&#9;c-0.636-2.936-1.32-5.796-1.654-8.329c-1.156-8.713-2.214-17.445-3.664-26.114c-0.309-1.852-3.065-1.027-2.788,0.784&#10;&#9;&#9;c1.568,10.222,2.605,20.517,3.853,30.783c0.06,0.482,0.107,1.011,0.151,1.541c-2.318-0.718-4.637-1.367-6.955-1.953&#10;&#9;&#9;c-0.621-3.424-1.512-6.864-2-10.017c-1.209-7.806-2.252-15.646-3.805-23.399c-0.344-1.708-2.889-0.952-2.583,0.731&#10;&#9;&#9;c1.527,8.401,2.485,16.903,3.638,25.364c0.265,1.934,0.422,4.139,0.696,6.351c-3.664-0.819-7.28-1.471-10.795-1.978&#10;&#9;&#9;c-0.167-0.599-0.331-1.197-0.479-1.799c-1.6-6.458-2.807-13.013-4.142-19.531c-0.366-1.795-3.056-1.005-2.719,0.766&#10;&#9;&#9;c1.166,6.124,1.95,13.243,3.402,20.076c-2.069-0.199-4.281-0.318-6.583-0.366c-1.446-9.188-4.18-18.532-5.768-27.28&#10;&#9;&#9;c-0.271-1.515-2.501-0.834-2.271,0.64c1.317,8.458,2.085,17.795,3.787,26.634c-3.802,0.082-7.787,0.381-11.81,0.917&#10;&#9;&#9;c-0.287-0.63-0.561-1.26-0.813-1.884c-1.962-4.842-3.62-9.8-4.98-14.843c-0.375-1.386-2.485-0.781-2.136,0.599&#10;&#9;&#9;c1.424,5.626,3.286,11.095,5.368,16.506c-2.614,0.416-5.229,0.933-7.806,1.569c-2.747-6.077-6.263-11.901-9.167-16.714&#10;&#9;&#9;c-0.822-1.364-2.911-0.123-2.123,1.26c3.024,5.292,5.68,10.701,7.96,16.343c-3.043,0.879-6.001,1.928-8.808,3.156&#10;&#9;&#9;c-4.659-8.981-13.177-15.612-23.371-20.604c-8.436-4.133-17.452-7.021-26.045-10.805c-3.037-1.338-5.815-3.131-8.511-5.087&#10;&#9;&#9;c1.663-11.882,4.684-22.372,11.498-32.664c6.067-9.17,13.574-17.291,21.056-25.343c11,3.012,23.024,3.484,35.12,4.039&#10;&#9;&#9;c30.764,1.411,61.134,4.423,87.995,20.901c31.192,19.137,54.386,53.845,67.421,89.526c-0.249,12.49-0.759,24.974-0.781,37.47&#10;&#9;&#9;c-0.009,5.119-2.022,20.907,4.215,23.865c0.677,0.321,1.604-0.428,1.103-1.14c-4.039-5.711-1.795-21.541-1.846-28.156&#10;&#9;&#9;c-0.063-7.881,0.076-15.76,0.183-23.638c2.438,7.629,4.419,15.259,5.894,22.737c0.983,4.987,1.742,10.011,2.303,15.064&#10;&#9;&#9;c-0.022,5.45-0.063,10.902,0.139,16.33c0.129,3.465,0.277,7.963,1.011,12.345C1214.997,930.532,1203.685,971.975,1192.114,1009.701&#10;&#9;&#9;z" transform="matrix(0.9998970031738282, 0.01435687579214573, -0.01435687579214573, 0.9998970031738282, 1176.0550246921603, 59.379209028365835)"/><path fill="#FFFFFF" d="M549.496,410.942c0.047,4.177,0.088,8.36,0.107,12.553h13.104c-0.019-4.193-0.069-8.376-0.145-12.553&#10;&#9;&#9;H549.496z" transform="matrix(1, 0, 0, 1, 0, 7.105427357601002e-15)"/><path fill="#FFFFFF" d="M561.309,379.559h-11.841c-0.085,4.184-0.123,8.367-0.116,12.553h12.641&#10;&#9;&#9;C561.807,387.926,561.58,383.741,561.309,379.559z" transform="matrix(1, 0, 0, 1, 0, 7.105427357601002e-15)"/><path fill="#FFFFFF" d="M723.879,420.714c-0.996,0.997-2.054,1.887-3.106,2.781h12.046&#10;&#9;&#9;C731.424,419.995,727.108,417.485,723.879,420.714z" transform="matrix(1, 0, 0, 1, 0, 7.105427357601002e-15)"/><path fill="#FFFFFF" d="M707.285,442.325h-17.08h-1.311h-52.462c-0.797,1.454-0.246,3.736,1.761,3.878&#10;&#9;&#9;C661.533,447.841,685.549,449.376,707.285,442.325z" transform="matrix(1, 0, 0, 1, 0, 7.105427357601002e-15)"/><path fill="#FFFFFF" d="M785.757,379.559h-69.8C735.853,381.619,763.388,385.007,785.757,379.559z" transform="matrix(1, 0, 0, 1, 0, 7.105427357601002e-15)"/></svg>